<?xml version="1.0" encoding="UTF-8" standalone="no"?>
<svg
   xmlns:dc="http://purl.org/dc/elements/1.1/"
   xmlns:cc="http://creativecommons.org/ns#"
   xmlns:rdf="http://www.w3.org/1999/02/22-rdf-syntax-ns#"
   xmlns:svg="http://www.w3.org/2000/svg"
   xmlns="http://www.w3.org/2000/svg"
   xmlns:xlink="http://www.w3.org/1999/xlink"
   xmlns:sodipodi="http://sodipodi.sourceforge.net/DTD/sodipodi-0.dtd"
   xmlns:inkscape="http://www.inkscape.org/namespaces/inkscape"
   inkscape:export-ydpi="196.097"
   inkscape:export-xdpi="196.097"
   inkscape:export-filename="C:\Users\John\Dropbox\research_teaching\cix_2022\imgs\shadow_world.png"
   sodipodi:docname="shadow_world.svg"
   inkscape:version="1.0 (4035a4fb49, 2020-05-01)"
   id="svg8"
   version="1.1"
   viewBox="0 0 210 297"
   height="297mm"
   width="210mm">
  <defs
     id="defs2">
    <inkscape:path-effect
       effect="spiro"
       id="path-effect2633"
       is_visible="true"
       lpeversion="1" />
    <inkscape:path-effect
       effect="spiro"
       id="path-effect2629"
       is_visible="true"
       lpeversion="1" />
    <inkscape:path-effect
       lpeversion="1"
       is_visible="true"
       id="path-effect2625"
       effect="spiro" />
    <marker
       inkscape:stockid="Arrow1Lend"
       orient="auto"
       refY="0.0"
       refX="0.0"
       id="marker2325"
       style="overflow:visible;"
       inkscape:isstock="true">
      <path
         id="path2323"
         d="M 0.0,0.0 L 5.0,-5.0 L -12.5,0.0 L 5.0,5.0 L 0.0,0.0 z "
         style="fill-rule:evenodd;stroke:#808080;stroke-width:1pt;stroke-opacity:1;fill:#808080;fill-opacity:1"
         transform="scale(0.8) rotate(180) translate(12.5,0)" />
    </marker>
    <marker
       inkscape:stockid="Arrow1Lend"
       orient="auto"
       refY="0.0"
       refX="0.0"
       id="marker2315"
       style="overflow:visible;"
       inkscape:isstock="true">
      <path
         id="path2313"
         d="M 0.0,0.0 L 5.0,-5.0 L -12.5,0.0 L 5.0,5.0 L 0.0,0.0 z "
         style="fill-rule:evenodd;stroke:#808080;stroke-width:1pt;stroke-opacity:1;fill:#808080;fill-opacity:1"
         transform="scale(0.8) rotate(180) translate(12.5,0)" />
    </marker>
    <marker
       inkscape:stockid="Arrow1Lend"
       orient="auto"
       refY="0.0"
       refX="0.0"
       id="marker2305"
       style="overflow:visible;"
       inkscape:isstock="true">
      <path
         id="path2303"
         d="M 0.0,0.0 L 5.0,-5.0 L -12.5,0.0 L 5.0,5.0 L 0.0,0.0 z "
         style="fill-rule:evenodd;stroke:#808080;stroke-width:1pt;stroke-opacity:1;fill:#808080;fill-opacity:1"
         transform="scale(0.8) rotate(180) translate(12.5,0)" />
    </marker>
    <marker
       inkscape:stockid="Arrow1Lend"
       orient="auto"
       refY="0.0"
       refX="0.0"
       id="marker2295"
       style="overflow:visible;"
       inkscape:isstock="true">
      <path
         id="path2293"
         d="M 0.0,0.0 L 5.0,-5.0 L -12.5,0.0 L 5.0,5.0 L 0.0,0.0 z "
         style="fill-rule:evenodd;stroke:#808080;stroke-width:1pt;stroke-opacity:1;fill:#808080;fill-opacity:1"
         transform="scale(0.8) rotate(180) translate(12.5,0)" />
    </marker>
    <marker
       inkscape:stockid="Arrow1Lend"
       orient="auto"
       refY="0.0"
       refX="0.0"
       id="marker2285"
       style="overflow:visible;"
       inkscape:isstock="true">
      <path
         id="path2283"
         d="M 0.0,0.0 L 5.0,-5.0 L -12.5,0.0 L 5.0,5.0 L 0.0,0.0 z "
         style="fill-rule:evenodd;stroke:#808080;stroke-width:1pt;stroke-opacity:1;fill:#808080;fill-opacity:1"
         transform="scale(0.8) rotate(180) translate(12.5,0)" />
    </marker>
    <inkscape:path-effect
       lpeversion="1"
       is_visible="true"
       id="path-effect2281"
       effect="spiro" />
    <inkscape:path-effect
       lpeversion="1"
       is_visible="true"
       id="path-effect2277"
       effect="spiro" />
    <inkscape:path-effect
       lpeversion="1"
       is_visible="true"
       id="path-effect2273"
       effect="spiro" />
    <inkscape:path-effect
       lpeversion="1"
       is_visible="true"
       id="path-effect2269"
       effect="spiro" />
    <inkscape:path-effect
       lpeversion="1"
       is_visible="true"
       id="path-effect2265"
       effect="spiro" />
    <marker
       inkscape:collect="always"
       inkscape:isstock="true"
       style="overflow:visible;"
       id="Arrow1Lend"
       refX="0.0"
       refY="0.0"
       orient="auto"
       inkscape:stockid="Arrow1Lend">
      <path
         transform="scale(0.8) rotate(180) translate(12.5,0)"
         style="fill-rule:evenodd;stroke:#808080;stroke-width:1pt;stroke-opacity:1;fill:#808080;fill-opacity:1"
         d="M 0.0,0.0 L 5.0,-5.0 L -12.5,0.0 L 5.0,5.0 L 0.0,0.0 z "
         id="path1986" />
    </marker>
    <inkscape:path-effect
       lpeversion="1"
       is_visible="true"
       id="path-effect1981"
       effect="spiro" />
    <inkscape:path-effect
       effect="spiro"
       id="path-effect1977"
       is_visible="true"
       lpeversion="1" />
    <inkscape:path-effect
       lpeversion="1"
       is_visible="true"
       id="path-effect1965"
       effect="spiro" />
    <inkscape:path-effect
       effect="spiro"
       id="path-effect1963"
       is_visible="true"
       lpeversion="1" />
    <inkscape:path-effect
       effect="spiro"
       id="path-effect1951"
       is_visible="true"
       lpeversion="1" />
    <inkscape:path-effect
       lpeversion="1"
       is_visible="true"
       id="path-effect1947"
       effect="spiro" />
    <inkscape:path-effect
       lpeversion="1"
       is_visible="true"
       id="path-effect1916"
       effect="spiro" />
    <inkscape:path-effect
       effect="spiro"
       id="path-effect1912"
       is_visible="true"
       lpeversion="1" />
    <inkscape:path-effect
       lpeversion="1"
       is_visible="true"
       id="path-effect1908"
       effect="spiro" />
    <linearGradient
       id="linearGradient841"
       inkscape:collect="always">
      <stop
         id="stop837"
         offset="0"
         style="stop-color:#111111;stop-opacity:1" />
      <stop
         style="stop-color:#0b0b28;stop-opacity:1"
         offset="0.40426922"
         id="stop851" />
      <stop
         style="stop-color:#373748;stop-opacity:1"
         offset="0.55397123"
         id="stop847" />
      <stop
         style="stop-color:#6f6f91;stop-opacity:1"
         offset="0.65144926"
         id="stop845" />
      <stop
         id="stop849"
         offset="0.76109248"
         style="stop-color:#dbdbe3;stop-opacity:1" />
      <stop
         style="stop-color:#e5d5ff;stop-opacity:1"
         offset="0.86747193"
         id="stop853" />
      <stop
         id="stop839"
         offset="1"
         style="stop-color:#ffffff;stop-opacity:0" />
    </linearGradient>
    <inkscape:path-effect
       lpeversion="1"
       is_visible="true"
       id="path-effect835"
       effect="spiro" />
    <linearGradient
       gradientUnits="userSpaceOnUse"
       y2="114.65778"
       x2="94.545113"
       y1="116.12779"
       x1="83.789757"
       id="linearGradient843"
       xlink:href="#linearGradient841"
       inkscape:collect="always" />
    <inkscape:path-effect
       lpeversion="0"
       is_visible="true"
       id="path-effect30737"
       effect="spiro" />
    <inkscape:path-effect
       scale_width="1"
       lpeversion="0"
       cusp_linecap_type="round"
       end_linecap_type="zerowidth"
       miter_limit="4"
       linejoin_type="round"
       start_linecap_type="zerowidth"
       interpolator_beta="0.2"
       interpolator_type="Linear"
       sort_points="true"
       offset_points="0,-3.3277673"
       is_visible="true"
       id="path-effect30740"
       effect="powerstroke" />
    <inkscape:path-effect
       lpeversion="0"
       is_visible="true"
       id="path-effect30744"
       effect="spiro" />
    <inkscape:path-effect
       scale_width="1"
       lpeversion="0"
       cusp_linecap_type="round"
       end_linecap_type="zerowidth"
       miter_limit="4"
       linejoin_type="round"
       start_linecap_type="zerowidth"
       interpolator_beta="0.2"
       interpolator_type="Linear"
       sort_points="true"
       offset_points="0.26971872,4.4451239"
       is_visible="true"
       id="path-effect30747"
       effect="powerstroke" />
    <inkscape:path-effect
       lpeversion="0"
       is_visible="true"
       id="path-effect30751"
       effect="spiro" />
    <inkscape:path-effect
       scale_width="1"
       lpeversion="0"
       cusp_linecap_type="round"
       end_linecap_type="zerowidth"
       miter_limit="4"
       linejoin_type="round"
       start_linecap_type="zerowidth"
       interpolator_beta="0.2"
       interpolator_type="Linear"
       sort_points="true"
       offset_points="0.051659226,-3.3388214"
       is_visible="true"
       id="path-effect30754"
       effect="powerstroke" />
    <inkscape:path-effect
       lpeversion="0"
       is_visible="true"
       id="path-effect30758"
       effect="spiro" />
    <inkscape:path-effect
       scale_width="1"
       lpeversion="0"
       cusp_linecap_type="round"
       end_linecap_type="zerowidth"
       miter_limit="4"
       linejoin_type="round"
       start_linecap_type="zerowidth"
       interpolator_beta="0.2"
       interpolator_type="Linear"
       sort_points="true"
       offset_points="0.085316788,3.2628935"
       is_visible="true"
       id="path-effect30761"
       effect="powerstroke" />
    <inkscape:path-effect
       lpeversion="0"
       is_visible="true"
       id="path-effect30769"
       effect="spiro" />
    <inkscape:path-effect
       scale_width="1"
       lpeversion="0"
       cusp_linecap_type="round"
       end_linecap_type="zerowidth"
       miter_limit="4"
       linejoin_type="round"
       start_linecap_type="zerowidth"
       interpolator_beta="0.2"
       interpolator_type="Linear"
       sort_points="true"
       offset_points="0.036454139,6.0794345"
       is_visible="true"
       id="path-effect30772"
       effect="powerstroke" />
    <inkscape:path-effect
       lpeversion="0"
       is_visible="true"
       id="path-effect30777"
       effect="spiro" />
    <inkscape:path-effect
       scale_width="1"
       lpeversion="0"
       cusp_linecap_type="round"
       end_linecap_type="zerowidth"
       miter_limit="4"
       linejoin_type="round"
       start_linecap_type="zerowidth"
       interpolator_beta="0.2"
       interpolator_type="Linear"
       sort_points="true"
       offset_points="0.10906024,-4.2571427"
       is_visible="true"
       id="path-effect30780"
       effect="powerstroke" />
    <inkscape:path-effect
       lpeversion="0"
       is_visible="true"
       id="path-effect30784"
       effect="spiro" />
    <inkscape:path-effect
       scale_width="1"
       lpeversion="0"
       cusp_linecap_type="round"
       end_linecap_type="zerowidth"
       miter_limit="4"
       linejoin_type="round"
       start_linecap_type="zerowidth"
       interpolator_beta="0.2"
       interpolator_type="Linear"
       sort_points="true"
       offset_points="0.043702184,4.1386932"
       is_visible="true"
       id="path-effect30787"
       effect="powerstroke" />
    <inkscape:path-effect
       lpeversion="0"
       is_visible="true"
       id="path-effect30795"
       effect="spiro" />
    <inkscape:path-effect
       scale_width="1"
       lpeversion="0"
       cusp_linecap_type="round"
       end_linecap_type="zerowidth"
       miter_limit="4"
       linejoin_type="round"
       start_linecap_type="zerowidth"
       interpolator_beta="0.2"
       interpolator_type="Linear"
       sort_points="true"
       offset_points="0.11089535,-3.8965144"
       is_visible="true"
       id="path-effect30798"
       effect="powerstroke" />
  </defs>
  <sodipodi:namedview
     inkscape:window-maximized="1"
     inkscape:window-y="-8"
     inkscape:window-x="1912"
     inkscape:window-height="1377"
     inkscape:window-width="2560"
     showgrid="false"
     inkscape:document-rotation="0"
     inkscape:current-layer="layer1"
     inkscape:document-units="mm"
     inkscape:cy="510.84196"
     inkscape:cx="329.13821"
     inkscape:zoom="1.4"
     inkscape:pageshadow="2"
     inkscape:pageopacity="0.0"
     borderopacity="1.0"
     bordercolor="#666666"
     pagecolor="#ffffff"
     id="base" />
  <metadata
     id="metadata5">
    <rdf:RDF>
      <cc:Work
         rdf:about="">
        <dc:format>image/svg+xml</dc:format>
        <dc:type
           rdf:resource="http://purl.org/dc/dcmitype/StillImage" />
        <dc:title></dc:title>
      </cc:Work>
    </rdf:RDF>
  </metadata>
  <g
     id="layer1"
     inkscape:groupmode="layer"
     inkscape:label="Layer 1">
    <path
       sodipodi:nodetypes="ccsccc"
       inkscape:original-d="m 34.745038,69.757345 51.182115,-0.400903 c 0,0 2.69769,22.175112 4.319919,32.549518 4.71851,30.17559 17.997088,88.38994 17.997088,88.38994 H 34.2105 C 31.003265,189.49409 34.745038,69.757345 34.745038,69.757345 Z"
       inkscape:path-effect="#path-effect835"
       id="path833"
       d="m 34.745038,69.757345 51.182115,-0.400903 c 1.240317,10.875093 2.680615,21.727378 4.319919,32.549518 4.505129,29.74137 10.514368,59.25484 17.997088,88.38994 H 34.2105 Z"
       style="fill:url(#linearGradient843);fill-opacity:1;stroke:none;stroke-width:0.264583px;stroke-linecap:butt;stroke-linejoin:miter;stroke-opacity:1" />
    <rect
       ry="1.8310531"
       y="125.88395"
       x="81.517204"
       height="6.347651"
       width="27.862846"
       id="rect2531"
       style="fill:#ffffff;fill-opacity:1;stroke:#000000;stroke-width:0.235697;stroke-linecap:square;stroke-linejoin:round;stroke-miterlimit:3.95;stroke-dasharray:0.707093, 0.23569699999999999;stroke-dashoffset:0" />
    <text
       id="text857"
       y="77.240891"
       x="37.01683"
       style="font-size:6.35px;line-height:1.25;font-family:Candice;-inkscape-font-specification:Candice;letter-spacing:0px;word-spacing:0px;stroke-width:0.264583;fill:#999999;"
       xml:space="preserve"><tspan
         id="tspan859"
         style="font-style:normal;font-variant:normal;font-weight:normal;font-stretch:normal;font-size:6.35px;font-family:'EB Garamond';-inkscape-font-specification:'EB Garamond';fill:#999999;stroke-width:0.264583;"
         y="77.240891"
         x="37.01683"
         sodipodi:role="line">Shadow world</tspan></text>
    <text
       xml:space="preserve"
       style="font-size:6.35px;line-height:1.25;font-family:Candice;-inkscape-font-specification:Candice;letter-spacing:0px;word-spacing:0px;fill:#b3b3b3;stroke-width:0.264583;"
       x="116.26225"
       y="77.240891"
       id="text865"><tspan
         sodipodi:role="line"
         x="116.26225"
         y="77.240891"
         style="font-style:normal;font-variant:normal;font-weight:normal;font-stretch:normal;font-size:6.35px;font-family:'Century Gothic';-inkscape-font-specification:'Century Gothic';fill:#b3b3b3;stroke-width:0.264583;"
         id="tspan863">Real world</tspan></text>
    <text
       id="text869"
       y="87.998634"
       x="38.831509"
       style="font-size:3.8293px;line-height:1.25;font-family:Candice;-inkscape-font-specification:Candice;letter-spacing:0px;word-spacing:0px;fill:#ffffff;stroke-width:0.0957326"
       xml:space="preserve"><tspan
         style="font-style:normal;font-variant:normal;font-weight:normal;font-stretch:normal;font-family:'Century Schoolbook';-inkscape-font-specification:'Century Schoolbook';fill:#ffffff;stroke-width:0.0957326"
         y="87.998634"
         x="38.831509"
         id="tspan867"
         sodipodi:role="line">Latent parameters</tspan></text>
    <text
       xml:space="preserve"
       style="font-size:3.8293px;line-height:1.25;font-family:Candice;-inkscape-font-specification:Candice;letter-spacing:0px;word-spacing:0px;fill:#ffffff;stroke-width:0.0957326"
       x="38.430603"
       y="96.41761"
       id="text873"><tspan
         sodipodi:role="line"
         id="tspan871"
         x="38.430603"
         y="96.41761"
         style="font-style:normal;font-variant:normal;font-weight:normal;font-stretch:normal;font-family:'Century Schoolbook';-inkscape-font-specification:'Century Schoolbook';fill:#ffffff;stroke-width:0.0957326">Prior</tspan></text>
    <text
       id="text877"
       y="96.41761"
       x="38.430603"
       style="font-size:3.8293px;line-height:1.25;font-family:Candice;-inkscape-font-specification:Candice;letter-spacing:0px;word-spacing:0px;fill:#ffffff;stroke-width:0.0957326"
       xml:space="preserve"><tspan
         style="font-style:normal;font-variant:normal;font-weight:normal;font-stretch:normal;font-family:'Century Schoolbook';-inkscape-font-specification:'Century Schoolbook';fill:#ffffff;stroke-width:0.0957326"
         y="96.41761"
         x="38.430603"
         id="tspan875"
         sodipodi:role="line">Prior</tspan></text>
    <text
       xml:space="preserve"
       style="font-size:3.8293px;line-height:1.25;font-family:Candice;-inkscape-font-specification:Candice;letter-spacing:0px;word-spacing:0px;fill:#ffffff;stroke-width:0.0957326"
       x="38.965141"
       y="145.32793"
       id="text881"><tspan
         sodipodi:role="line"
         id="tspan879"
         x="38.965141"
         y="145.32793"
         style="font-style:normal;font-variant:normal;font-weight:normal;font-stretch:normal;font-family:'Century Schoolbook';-inkscape-font-specification:'Century Schoolbook';fill:#ffffff;stroke-width:0.0957326">Posterior</tspan></text>
    <text
       xml:space="preserve"
       style="font-size:3.8293px;line-height:1.25;font-family:Candice;-inkscape-font-specification:Candice;letter-spacing:0px;word-spacing:0px;fill:#000000;stroke-width:0.0957326"
       x="121.95627"
       y="110.29924"
       id="text885"><tspan
         sodipodi:role="line"
         id="tspan883"
         x="121.95627"
         y="110.29924"
         style="font-style:normal;font-variant:normal;font-weight:normal;font-stretch:normal;font-size:3.8293px;font-family:'Century Gothic';-inkscape-font-specification:'Century Gothic, Normal';font-variant-ligatures:normal;font-variant-caps:normal;font-variant-numeric:normal;font-variant-east-asian:normal;fill:#000000;stroke-width:0.0957326">Observations</tspan></text>
    <text
       xml:space="preserve"
       style="font-style:normal;font-variant:normal;font-weight:normal;font-stretch:normal;font-size:3.8293px;line-height:1.25;font-family:'Century Gothic';-inkscape-font-specification:'Century Gothic, Normal';font-variant-ligatures:normal;font-variant-caps:normal;font-variant-numeric:normal;font-variant-east-asian:normal;letter-spacing:0px;word-spacing:0px;fill:#000000;stroke-width:0.0957326"
       x="119.0258"
       y="99.441414"
       id="text889"><tspan
         sodipodi:role="line"
         id="tspan887"
         x="119.0258"
         y="99.441414"
         style="font-style:normal;font-variant:normal;font-weight:normal;font-stretch:normal;font-size:3.8293px;font-family:'Century Gothic';-inkscape-font-specification:'Century Gothic, Normal';font-variant-ligatures:normal;font-variant-caps:normal;font-variant-numeric:normal;font-variant-east-asian:normal;fill:#000000;stroke-width:0.0957326">Prior predictive</tspan></text>
    <text
       id="text893"
       y="157.62233"
       x="118.34418"
       style="font-style:normal;font-variant:normal;font-weight:normal;font-stretch:normal;font-size:3.8293px;line-height:1.25;font-family:'Century Gothic';-inkscape-font-specification:'Century Gothic, Normal';font-variant-ligatures:normal;font-variant-caps:normal;font-variant-numeric:normal;font-variant-east-asian:normal;letter-spacing:0px;word-spacing:0px;fill:#000000;stroke-width:0.0957326"
       xml:space="preserve"><tspan
         style="font-style:normal;font-variant:normal;font-weight:normal;font-stretch:normal;font-size:3.8293px;font-family:'Century Gothic';-inkscape-font-specification:'Century Gothic, Normal';font-variant-ligatures:normal;font-variant-caps:normal;font-variant-numeric:normal;font-variant-east-asian:normal;fill:#000000;stroke-width:0.0957326"
         y="157.62233"
         x="118.34418"
         id="tspan891"
         sodipodi:role="line">Posterior predictive</tspan></text>
    <path
       style="fill:#ffffff;stroke-width:0.00974362"
       d="m 42.18264,188.52259 c -0.110352,-0.008 -0.310854,-0.0353 -0.426413,-0.0586 -0.945466,-0.19049 -1.681525,-0.83844 -1.891537,-1.66512 -0.05337,-0.21009 -0.07284,-0.4795 -0.04975,-0.6886 0.113787,-1.03062 1.11376,-1.73733 2.16798,-1.53217 0.535253,0.10417 1.007402,0.43434 1.250351,0.87435 0.271144,0.49109 0.212596,1.05729 -0.147534,1.42675 -0.152022,0.15595 -0.32068,0.24971 -0.552361,0.30707 -0.106245,0.0263 -0.328071,0.0283 -0.43574,0.004 -0.37753,-0.0853 -0.661119,-0.32983 -0.786022,-0.67782 -0.03273,-0.0912 -0.02724,-0.10101 0.0073,-0.013 0.03822,0.0975 0.134807,0.24021 0.219443,0.32436 0.486159,0.48339 1.302673,0.3438 1.581051,-0.27028 0.05533,-0.12207 0.07911,-0.23572 0.07914,-0.37837 5.7e-5,-0.30549 -0.11366,-0.5556 -0.367773,-0.80881 -0.253395,-0.25249 -0.532546,-0.40027 -0.886812,-0.46946 -0.111071,-0.0217 -0.421661,-0.0243 -0.530971,-0.005 -0.275199,0.0499 -0.541927,0.19127 -0.745892,0.39539 -0.281664,0.28187 -0.415811,0.62472 -0.400604,1.02383 0.0085,0.22389 0.04995,0.39007 0.148469,0.59574 0.255182,0.53269 0.799109,0.90185 1.492003,1.01262 0.13021,0.0208 0.474908,0.0293 0.62155,0.0152 0.428906,-0.041 0.868115,-0.17031 1.324989,-0.39012 0.275833,-0.1327 0.557056,-0.30761 0.779407,-0.48475 0.138952,-0.11071 0.409234,-0.37992 0.511025,-0.50901 0.368142,-0.46686 0.578051,-0.99535 0.662248,-1.66734 0.02743,-0.21889 0.04124,-0.52392 0.03342,-0.73811 l -0.0065,-0.1778 -0.04478,-0.026 c -0.285799,-0.16624 -0.603196,-0.43967 -0.813526,-0.70083 -0.188099,-0.23356 -0.372213,-0.54774 -0.476601,-0.81331 -0.193579,-0.49247 -0.248081,-1.02855 -0.172273,-1.69443 0.02325,-0.20419 0.05809,-0.41464 0.13109,-0.79184 0.02975,-0.15374 0.0541,-0.28598 0.0541,-0.29387 0,-0.008 -0.03617,-0.0385 -0.08038,-0.068 -0.08552,-0.0571 -0.16647,-0.12984 -0.224224,-0.20148 l -0.03533,-0.0438 -0.188074,0.18555 c -0.269684,0.26607 -0.489087,0.46222 -0.799419,0.71471 -0.06832,0.0556 -0.124219,0.10383 -0.124219,0.1072 0,0.01 0.140547,0.17198 0.359618,0.41522 0.440293,0.48887 0.610445,0.71683 0.756448,1.01346 0.334111,0.67877 0.314943,1.4102 -0.05146,1.96354 -0.09346,0.14115 -0.28522,0.33653 -0.419703,0.42764 -0.349511,0.23678 -0.761847,0.32342 -1.164864,0.24478 -0.593147,-0.11576 -1.050712,-0.564 -1.176914,-1.15294 -0.03057,-0.14267 -0.03061,-0.41626 -8.5e-5,-0.55872 0.02421,-0.11296 0.07979,-0.27899 0.115185,-0.34411 0.01323,-0.0243 0.02104,-0.0355 0.01736,-0.0247 -0.07345,0.21401 -0.09495,0.33218 -0.09486,0.52134 2.23e-4,0.36961 0.128234,0.68043 0.387669,0.94101 0.258274,0.25942 0.555882,0.38427 0.915991,0.38427 0.334827,0 0.618543,-0.11289 0.856433,-0.34077 0.238701,-0.22867 0.356219,-0.49128 0.372959,-0.83346 0.01991,-0.40698 -0.140391,-0.81771 -0.485581,-1.24418 -0.04999,-0.0618 -0.283333,-0.30522 -0.530028,-0.553 l -0.440719,-0.44266 -0.10574,0.0687 c -0.600459,0.38997 -1.207554,0.65719 -1.796076,0.79057 -0.283968,0.0644 -0.546264,0.0925 -0.862219,0.0927 -0.241919,8e-5 -0.371133,-0.01 -0.579683,-0.0434 -1.016733,-0.16473 -1.83817,-0.77272 -2.223888,-1.64602 -0.2379,-0.53863 -0.283782,-1.11518 -0.133805,-1.68139 0.173378,-0.65455 0.599469,-1.18909 1.198425,-1.50345 0.649295,-0.34079 1.431799,-0.34859 2.08487,-0.0208 0.8766,0.44 1.361427,1.40521 1.173537,2.33632 -0.141074,0.69912 -0.643803,1.22686 -1.30351,1.36836 -0.143581,0.0308 -0.436548,0.0311 -0.574061,4e-4 -0.288714,-0.0641 -0.488203,-0.17128 -0.684352,-0.36758 -0.109166,-0.10926 -0.168398,-0.18851 -0.237374,-0.31759 -0.103835,-0.19433 -0.151947,-0.43825 -0.12882,-0.6531 0.05506,-0.51155 0.389651,-0.90396 0.87698,-1.02853 0.0513,-0.0131 0.130538,-0.0256 0.176085,-0.0278 0.08152,-0.004 0.08185,-0.004 0.0212,0.005 -0.348269,0.0498 -0.653384,0.24762 -0.821378,0.53259 -0.161387,0.27375 -0.200268,0.61817 -0.10227,0.90591 0.133468,0.39189 0.479805,0.68476 0.897616,0.75905 0.114307,0.0203 0.323914,0.0203 0.438374,2e-5 0.262328,-0.0466 0.504549,-0.17416 0.702452,-0.37006 0.28499,-0.2821 0.431412,-0.62388 0.448908,-1.04784 0.02872,-0.69581 -0.364914,-1.35573 -0.99548,-1.66892 -0.255105,-0.1267 -0.468637,-0.18025 -0.755049,-0.18932 -0.509812,-0.0161 -0.98333,0.17149 -1.344595,0.53283 -0.573659,0.57379 -0.707793,1.45352 -0.334782,2.19572 0.313958,0.62469 0.909555,1.02908 1.684249,1.14355 0.163032,0.0241 0.58211,0.0243 0.755049,3.1e-4 0.64128,-0.0888 1.236736,-0.32451 1.877441,-0.74334 0.0766,-0.0501 0.139273,-0.095 0.139273,-0.0997 0,-0.005 -0.01919,-0.0499 -0.04265,-0.10024 -0.08973,-0.19266 -0.148121,-0.38157 -0.176842,-0.57215 -0.01873,-0.12431 -0.01832,-0.36708 8.71e-4,-0.49617 0.0702,-0.47284 0.325736,-0.90216 0.705774,-1.18574 0.05626,-0.042 0.103479,-0.0773 0.104925,-0.0786 0.0015,-0.001 -0.03144,-0.0164 -0.07307,-0.0338 -1.036963,-0.43267 -1.548818,-0.70212 -2.01335,-1.05986 -0.227495,-0.1752 -0.516152,-0.45475 -0.672042,-0.65085 -0.330552,-0.41581 -0.51857,-0.82366 -0.602402,-1.30673 -0.01883,-0.10849 -0.02181,-0.1605 -0.02178,-0.3791 3.9e-5,-0.26465 0.0081,-0.34371 0.05375,-0.52615 0.15667,-0.62639 0.564242,-1.11334 1.118025,-1.33575 0.432946,-0.17387 0.895664,-0.15733 1.301629,0.0465 0.302949,0.15214 0.511117,0.3687 0.667785,0.69472 0.09092,0.1892 0.139512,0.33698 0.243518,0.7406 0.128839,0.49999 0.221434,0.70169 0.409366,0.89173 0.20454,0.20684 0.463123,0.25638 0.678683,0.13002 0.122611,-0.0719 0.218801,-0.22242 0.238782,-0.37373 0.04305,-0.32601 -0.230067,-0.62414 -0.571216,-0.62351 -0.161043,3.1e-4 -0.299853,0.0558 -0.419863,0.1679 -0.03989,0.0373 -0.07253,0.0654 -0.07253,0.0626 0,-0.003 0.02221,-0.0329 0.04936,-0.0667 0.133345,-0.16628 0.313309,-0.25175 0.529448,-0.25143 0.124717,2.1e-4 0.202108,0.0183 0.314192,0.0737 0.331763,0.16384 0.484934,0.56301 0.353874,0.9222 -0.03758,0.103 -0.0879,0.18292 -0.168785,0.26809 -0.223056,0.23487 -0.545198,0.31057 -0.873493,0.20525 -0.306802,-0.0984 -0.549161,-0.32759 -0.731759,-0.69193 -0.07972,-0.15907 -0.122605,-0.27041 -0.229992,-0.59716 -0.133419,-0.40597 -0.186658,-0.53377 -0.284042,-0.68182 -0.294649,-0.44796 -0.86891,-0.55349 -1.342399,-0.24669 -0.499637,0.32374 -0.688054,1.00951 -0.459593,1.67276 0.194204,0.5638 0.631266,1.05042 1.31063,1.45924 0.311663,0.18755 0.714281,0.37336 1.396166,0.64436 0.465398,0.18496 0.638261,0.25597 0.909075,0.37345 0.123164,0.0534 0.225914,0.0952 0.228335,0.0927 0.0024,-0.002 -0.0051,-0.045 -0.01676,-0.0946 -0.05847,-0.24908 -0.08313,-0.61379 -0.05925,-0.87601 0.08076,-0.8868 0.527895,-1.64844 1.248604,-2.12687 0.541223,-0.35929 1.172889,-0.52698 1.786754,-0.47434 1.304639,0.11188 2.333652,1.05649 2.552474,2.34312 0.09882,0.58102 0.01034,1.19827 -0.249159,1.73826 -0.201109,0.41849 -0.464289,0.73715 -0.783396,0.94853 -0.370676,0.24555 -0.851779,0.31442 -1.234789,0.17676 -0.464276,-0.16687 -0.760634,-0.58012 -0.735569,-1.02571 0.02241,-0.39843 0.286941,-0.72029 0.67939,-0.82663 0.09833,-0.0267 0.320869,-0.0238 0.423802,0.005 0.218108,0.062 0.387849,0.19008 0.506209,0.3821 0.05455,0.0885 0.05855,0.11378 0.0053,0.0337 -0.07941,-0.11948 -0.204373,-0.22723 -0.333696,-0.28776 -0.153892,-0.072 -0.368025,-0.0926 -0.525032,-0.0503 -0.42415,0.11406 -0.66459,0.54943 -0.528427,0.95686 0.12299,0.36801 0.510942,0.60164 0.926256,0.55781 0.410044,-0.0433 0.78485,-0.31209 1.05085,-0.75367 0.529188,-0.87849 0.488415,-1.93887 -0.105219,-2.73642 -0.08825,-0.11856 -0.326641,-0.35756 -0.44095,-0.44208 -0.312215,-0.23085 -0.676697,-0.38146 -1.071283,-0.44268 -0.15067,-0.0234 -0.468102,-0.0231 -0.614181,4e-4 -0.669878,0.10847 -1.240551,0.47998 -1.587191,1.03327 -0.370194,0.59089 -0.435527,1.37892 -0.167247,2.01727 0.04088,0.0973 0.128294,0.26894 0.136945,0.26894 0.002,0 0.03574,-0.0127 0.07499,-0.0283 0.03925,-0.0156 0.102599,-0.0357 0.14077,-0.0449 l 0.0694,-0.0166 0.0053,-0.30351 c 0.0035,-0.19819 0.01079,-0.34238 0.02105,-0.41556 0.0997,-0.71136 0.36586,-1.20597 0.808472,-1.50243 0.151669,-0.10159 0.295686,-0.16234 0.473108,-0.19959 0.115127,-0.0241 0.353654,-0.0238 0.467644,7.9e-4 0.385509,0.0828 0.692452,0.35164 0.790947,0.69281 0.01924,0.0667 0.02248,0.0999 0.02233,0.22901 -2.13e-4,0.17744 -0.01168,0.23037 -0.08022,0.37029 -0.03804,0.0777 -0.05955,0.10687 -0.13346,0.18128 -0.05609,0.0565 -0.111126,0.10131 -0.151438,0.12339 -0.253134,0.13861 -0.546161,0.103 -0.74146,-0.0901 -0.110892,-0.10965 -0.165564,-0.24184 -0.163303,-0.39483 0.0014,-0.0965 0.01549,-0.14848 0.01703,-0.063 0.0024,0.1325 0.04947,0.24983 0.138381,0.34489 0.159325,0.17035 0.401695,0.20028 0.592091,0.0731 0.103512,-0.0691 0.173783,-0.17753 0.201919,-0.31143 0.05006,-0.23827 -0.102617,-0.52326 -0.341812,-0.63802 -0.100555,-0.0482 -0.178622,-0.0653 -0.297149,-0.0649 -0.22685,7.9e-4 -0.422135,0.0905 -0.599343,0.27564 -0.189021,0.19744 -0.301147,0.45091 -0.355082,0.8027 -0.03186,0.20781 -0.03872,0.59424 -0.01488,0.83804 0.0079,0.0804 0.01435,0.14906 0.01441,0.15258 5.6e-5,0.004 0.03848,0.0319 0.08537,0.0631 0.23817,0.15834 0.401749,0.40555 0.455348,0.68816 0.01889,0.0996 0.01889,0.28533 0,0.38491 -0.03097,0.16332 -0.0972,0.31249 -0.198953,0.44813 l -0.06267,0.0835 0.01761,0.0886 c 0.05201,0.2617 0.154404,0.62862 0.272787,0.97748 0.192086,0.56607 0.388784,0.91531 0.676742,1.20158 0.239016,0.23762 0.465153,0.3622 0.780344,0.42988 0.14825,0.0318 0.436127,0.0319 0.584555,3e-5 0.478703,-0.10261 0.886569,-0.41612 1.109495,-0.85282 0.235837,-0.462 0.180611,-0.97843 -0.139507,-1.30453 -0.220097,-0.22422 -0.535881,-0.31611 -0.828803,-0.24117 -0.447859,0.11457 -0.69831,0.56832 -0.55399,1.00368 0.05062,0.15271 0.168496,0.30314 0.313759,0.40041 0.0393,0.0263 0.06925,0.0479 0.06657,0.0479 -0.01617,0 -0.105488,-0.0453 -0.165389,-0.0839 -0.199691,-0.1287 -0.347995,-0.37499 -0.365713,-0.60732 -0.02135,-0.28005 0.07021,-0.52876 0.267214,-0.72581 0.334921,-0.33499 0.867403,-0.39124 1.29956,-0.13729 0.376944,0.22151 0.601371,0.61828 0.620781,1.09748 0.01966,0.48536 -0.177683,0.96014 -0.556678,1.33927 -0.546589,0.54679 -1.33722,0.73785 -2.067454,0.49963 -0.387739,-0.12649 -0.769601,-0.40187 -1.053841,-0.75997 -0.04112,-0.0518 -0.07596,-0.093 -0.07743,-0.0915 -0.0015,0.002 0.0232,0.10085 0.05481,0.22086 0.159735,0.60632 0.276974,1.18007 0.327342,1.60195 0.02651,0.22201 0.02182,0.20401 0.0568,0.21802 0.513028,0.20537 1.085228,0.24736 1.653508,0.12133 0.476991,-0.10579 0.978753,-0.31587 1.695208,-0.70975 0.857193,-0.47126 1.160765,-0.62796 1.471706,-0.7597 0.4844,-0.20521 0.915988,-0.32438 1.323011,-0.36531 0.148984,-0.015 0.482766,-0.0126 0.629235,0.005 0.361862,0.0423 0.69929,0.15396 0.966546,0.31973 0.457478,0.28377 0.793815,0.73992 0.923831,1.25295 0.04934,0.19469 0.058,0.27299 0.05721,0.51744 -4.35e-4,0.12595 -0.0049,0.25092 -0.01001,0.27772 -0.0074,0.039 -0.0094,0.0147 -0.0097,-0.12181 -9.5e-4,-0.33767 -0.06838,-0.62808 -0.212799,-0.916 -0.259966,-0.51828 -0.735933,-0.88884 -1.319913,-1.02759 -0.166958,-0.0397 -0.326617,-0.0566 -0.535841,-0.0567 -0.403796,-2.1e-4 -0.787386,0.076 -1.24705,0.248 -0.435014,0.16275 -0.846493,0.38352 -1.583169,0.84941 -0.20362,0.12877 -0.442556,0.27782 -0.53097,0.33122 -0.798116,0.48206 -1.385392,0.71461 -2.026456,0.80242 -0.169558,0.0232 -0.587788,0.0231 -0.764792,-2.1e-4 -0.182043,-0.024 -0.351156,-0.0568 -0.463733,-0.0899 -0.01365,-0.004 -0.01642,0.0156 -0.02239,0.15883 -0.03996,0.95832 -0.305475,1.7781 -0.778838,2.40469 -0.165439,0.21899 -0.398689,0.46268 -0.611538,0.6389 -0.656751,0.54373 -1.505286,0.91435 -2.342036,1.02295 -0.150273,0.0195 -0.513784,0.0323 -0.647881,0.0229 z m 3.453972,-5.80532 c -0.02994,-0.13151 -0.08919,-0.36762 -0.131664,-0.52468 -0.08081,-0.29881 -0.357581,-1.26517 -0.364273,-1.27187 -0.0046,-0.005 -0.02223,0.12057 -0.03534,0.25058 -0.01448,0.14368 -0.01168,0.45125 0.0053,0.58175 0.01834,0.14094 0.0621,0.32269 0.109438,0.45453 0.04586,0.12774 0.159833,0.35623 0.236488,0.47415 0.07802,0.12001 0.227672,0.30655 0.231515,0.28857 0.0016,-0.008 -0.02152,-0.12152 -0.05146,-0.25303 z m -0.323321,-0.49945 c -0.06258,-0.0309 -0.06846,-0.12457 -0.01006,-0.16018 0.04484,-0.0274 0.07213,-0.0239 0.110049,0.014 0.05159,0.0516 0.041,0.11284 -0.02544,0.1472 -0.03447,0.0178 -0.03627,0.0178 -0.07455,-0.001 z m -0.145876,-0.5312 c -0.04925,-0.025 -0.05676,-0.10304 -0.01404,-0.14577 0.04538,-0.0454 0.110869,-0.034 0.142524,0.0248 0.01888,0.0351 0.01477,0.0681 -0.01266,0.10202 -0.02005,0.0248 -0.08388,0.0352 -0.115823,0.019 z m -2.335327,-2.28386 c 0.17616,-0.1556 0.63171,-0.60633 0.78688,-0.77855 0.06602,-0.0733 0.100919,-0.11919 0.09505,-0.12506 -0.0051,-0.005 -0.04157,-0.0182 -0.08104,-0.0291 -0.100953,-0.0279 -0.275664,-0.0274 -0.383528,0.001 -0.337505,0.0893 -0.575108,0.37078 -0.619509,0.73394 -0.01681,0.13749 0.0057,0.35785 0.0349,0.3413 0.0071,-0.004 0.08237,-0.0687 0.167246,-0.14364 z m -0.445603,8.36644 c -0.04044,-0.0404 -0.03856,-0.0803 0.0059,-0.12476 0.03048,-0.0305 0.03844,-0.0337 0.07063,-0.0286 0.04804,0.008 0.08022,0.0448 0.07981,0.0922 -3.19e-4,0.0395 -0.01276,0.0609 -0.04533,0.0783 -0.03798,0.0202 -0.08013,0.0137 -0.110994,-0.0171 z M 41.76296,187.74 c -0.06466,-0.0647 -0.0067,-0.16937 0.08432,-0.1523 0.105483,0.0198 0.08745,0.18078 -0.02025,0.18078 -0.02635,0 -0.04299,-0.007 -0.06408,-0.0285 z m 1.178851,-0.039 c -0.03268,-0.0327 -0.03648,-0.067 -0.01201,-0.10845 0.06108,-0.10342 0.20785,-0.0182 0.157822,0.0916 -0.02361,0.0518 -0.101818,0.0609 -0.145814,0.0169 z m -1.719905,-0.17596 c -0.03735,-0.0151 -0.06459,-0.0599 -0.05866,-0.0964 0.01567,-0.0965 0.140042,-0.11476 0.177145,-0.0259 0.01256,0.03 0.01261,0.0387 4.36e-4,0.0679 -0.0078,0.0187 -0.02698,0.0402 -0.04349,0.0487 -0.0328,0.017 -0.04524,0.0179 -0.07541,0.006 z m 2.251626,-0.002 c -0.0794,-0.0449 -0.0452,-0.17353 0.04613,-0.17353 0.03476,0 0.09514,0.0554 0.09514,0.0872 0,0.0717 -0.08034,0.12078 -0.141267,0.0863 z m 0.511614,-0.24905 c -0.03823,-0.0348 -0.04566,-0.076 -0.02091,-0.11567 0.02315,-0.0371 0.06281,-0.0523 0.1064,-0.0407 0.04124,0.011 0.07308,0.0596 0.06579,0.10035 -0.007,0.0392 -0.05603,0.0828 -0.09296,0.0828 -0.01793,0 -0.0401,-0.0102 -0.05833,-0.0268 z m -3.230571,-0.14027 c -0.02314,-0.0112 -0.05281,-0.057 -0.05281,-0.0814 0,-0.0259 0.03018,-0.0704 0.05565,-0.082 0.03821,-0.0174 0.06891,-0.0122 0.102023,0.0174 0.02474,0.0221 0.03133,0.0357 0.03133,0.0646 0,0.0663 -0.07495,0.11115 -0.1362,0.0814 z m 3.660579,-0.16939 c -0.03703,-0.0312 -0.04663,-0.0716 -0.02634,-0.1108 0.01835,-0.0355 0.0422,-0.0497 0.08333,-0.0497 0.01678,0 0.03894,0.005 0.04925,0.01 0.02848,0.0152 0.05041,0.0648 0.0432,0.0976 -0.008,0.0365 -0.0569,0.0775 -0.09246,0.0775 -0.01545,0 -0.04069,-0.0109 -0.05699,-0.0246 z m -2.20034,-0.0242 c -0.02253,-0.009 -0.05166,-0.056 -0.05166,-0.0832 0,-0.0255 0.03036,-0.07 0.05565,-0.0815 0.03675,-0.0168 0.06724,-0.0125 0.09842,0.0138 0.03728,0.0314 0.04552,0.065 0.02598,0.10624 -0.02285,0.0482 -0.07486,0.0663 -0.12839,0.0447 z M 41.79019,186.7761 c -0.02175,-0.009 -0.05556,-0.0589 -0.05564,-0.0828 -8.4e-5,-0.0272 0.02947,-0.0716 0.05559,-0.0835 0.03675,-0.0167 0.06724,-0.0125 0.09842,0.0137 0.03728,0.0314 0.04552,0.0651 0.02598,0.10624 -0.02208,0.0465 -0.07444,0.0661 -0.124339,0.0463 z m 0.912587,-0.0208 c -0.02781,-0.0112 -0.06224,-0.0566 -0.0622,-0.0819 5.7e-5,-0.0328 0.03389,-0.0795 0.06771,-0.0935 0.02677,-0.0111 0.03579,-0.0106 0.06502,0.003 0.07092,0.0339 0.07597,0.1226 0.0093,0.16327 -0.03259,0.0199 -0.04819,0.0216 -0.07981,0.009 z m -2.201416,-0.0876 c -0.01109,-0.004 -0.02753,-0.0194 -0.03654,-0.0331 -0.03827,-0.0584 -0.0032,-0.12995 0.06847,-0.13956 0.03623,-0.005 0.04426,-0.002 0.07058,0.0242 0.0747,0.0747 -0.0038,0.18844 -0.102512,0.14848 z m 4.291198,-0.0247 c -0.07654,-0.0416 -0.05118,-0.15564 0.03725,-0.1675 0.03618,-0.005 0.04422,-0.002 0.07053,0.0242 0.04056,0.0406 0.04103,0.0896 0.0012,0.1294 -0.0317,0.0317 -0.06776,0.0363 -0.109008,0.0138 z m -2.605047,-0.0697 c -0.205426,-0.0303 -0.368137,-0.17303 -0.420326,-0.36881 -0.0071,-0.0268 -0.01304,-0.0844 -0.0131,-0.12809 -4.35e-4,-0.32037 0.305139,-0.55604 0.616436,-0.47536 0.168517,0.0437 0.30141,0.17391 0.352276,0.34522 0.02063,0.0695 0.02061,0.20288 -5.6e-5,0.27285 -0.05889,0.19941 -0.231661,0.33739 -0.442842,0.35363 -0.03474,0.003 -0.07632,0.003 -0.09239,4e-4 z m -0.716829,-0.15855 c -0.06474,-0.0648 -0.0029,-0.17186 0.08767,-0.15195 0.05666,0.0124 0.08452,0.0772 0.05814,0.13506 -0.02361,0.0518 -0.101817,0.0609 -0.145813,0.0169 z m 1.446432,-0.14672 c -0.03046,-0.0123 -0.06224,-0.0575 -0.06224,-0.0885 0,-0.0352 0.04132,-0.084 0.07793,-0.092 0.05105,-0.0112 0.10718,0.0378 0.10718,0.0935 0,0.0314 -0.02571,0.0723 -0.05331,0.0849 -0.02929,0.0134 -0.04084,0.0137 -0.06956,0.002 z m 2.195849,-0.0641 c -0.03262,-0.0177 -0.04652,-0.0423 -0.04652,-0.0823 0,-0.0411 0.01423,-0.065 0.04971,-0.0833 0.03605,-0.0186 0.0765,-0.0116 0.104223,0.0181 0.04381,0.047 0.03516,0.10971 -0.01973,0.14319 -0.03765,0.023 -0.05206,0.0237 -0.08768,0.004 z m -4.673173,-0.0861 c -0.08236,-0.0457 -0.05098,-0.17155 0.04277,-0.17155 0.02635,0 0.04299,0.007 0.06408,0.0285 0.07549,0.0755 -0.01358,0.19478 -0.106846,0.14307 z m 2.307918,-0.37861 c -0.0134,-0.007 -0.03299,-0.0287 -0.04354,-0.0483 -0.01837,-0.0341 -0.01848,-0.0371 -0.0025,-0.0705 0.0099,-0.0207 0.02978,-0.0412 0.04898,-0.0503 0.02922,-0.0139 0.03579,-0.014 0.0682,-4e-4 0.04842,0.0202 0.07347,0.0703 0.05614,0.11212 -0.02351,0.0568 -0.07973,0.0822 -0.127235,0.0574 z m 2.554019,-0.0222 c -0.03703,-0.0312 -0.04663,-0.0716 -0.02634,-0.1108 0.03647,-0.0705 0.132826,-0.0667 0.170521,0.007 0.0257,0.0501 -0.02748,0.12855 -0.08719,0.12855 -0.01545,0 -0.04069,-0.0109 -0.05699,-0.0246 z m -4.573168,-0.0737 c -0.02681,-0.0156 -0.04828,-0.0654 -0.04152,-0.0962 0.0033,-0.015 0.01698,-0.0376 0.0304,-0.0502 0.0505,-0.0474 0.139851,-0.0185 0.154939,0.0502 0.007,0.0318 -0.01539,0.0816 -0.04341,0.0966 -0.02378,0.0128 -0.07817,0.0125 -0.100401,-4e-4 z m 1.62325,-0.25423 c -0.04372,-0.0212 -0.05592,-0.0956 -0.02261,-0.13797 0.04076,-0.0518 0.12973,-0.0394 0.155003,0.0216 0.03399,0.0821 -0.05028,0.15615 -0.132393,0.11639 z m -1.19988,-0.067 c -0.03274,-0.0131 -0.05521,-0.0723 -0.04074,-0.10729 0.0157,-0.0379 0.04035,-0.0578 0.07948,-0.0642 0.0677,-0.011 0.123507,0.0696 0.09131,0.13194 -0.02444,0.0473 -0.07354,0.0622 -0.130039,0.0395 z m 0.576175,-0.0861 c -0.08088,-0.0504 -0.03272,-0.18859 0.05996,-0.17202 0.03913,0.007 0.08281,0.056 0.08281,0.093 0,0.0369 -0.04368,0.086 -0.08281,0.093 -0.0195,0.004 -0.03946,-10e-4 -0.05996,-0.0139 z m 3.751621,-0.0195 c -0.0165,-0.0101 -0.0358,-0.0323 -0.04288,-0.0494 -0.01751,-0.0423 0.0055,-0.0916 0.05329,-0.11443 0.03199,-0.0152 0.03643,-0.0152 0.06841,0 0.04781,0.0228 0.07079,0.0722 0.05329,0.11443 -0.01291,0.0311 -0.06012,0.0677 -0.0875,0.0677 -0.008,0 -0.02812,-0.008 -0.04462,-0.0183 z m 0.08473,-0.46526 c -0.05644,-0.0395 -0.05675,-0.12588 -5.14e-4,-0.15494 0.05433,-0.0281 0.105561,-0.0147 0.130851,0.0342 0.02227,0.0431 0.01799,0.0671 -0.01841,0.10349 -0.03725,0.0373 -0.075,0.0431 -0.111876,0.0172 z m 0.06536,-0.5465 c -0.05341,-0.0331 -0.06183,-0.0967 -0.01854,-0.13998 0.0743,-0.0743 0.196159,0.0159 0.1466,0.10848 -0.01153,0.0215 -0.05869,0.0483 -0.08448,0.0479 -0.0096,-1.1e-4 -0.02926,-0.008 -0.04359,-0.0164 z m -3.204361,-0.21643 c -0.03981,-0.0398 -0.03934,-0.0888 0.0012,-0.1294 0.02597,-0.026 0.03462,-0.0291 0.06896,-0.0244 0.04824,0.006 0.07448,0.0289 0.08226,0.0704 0.01691,0.0902 -0.08819,0.14768 -0.152431,0.0834 z m 0.438417,0 c -0.03665,-0.0367 -0.0386,-0.0853 -0.005,-0.12446 0.01953,-0.0227 0.03124,-0.0273 0.06904,-0.0273 0.0378,0 0.04952,0.005 0.06904,0.0273 0.05159,0.06 0.0096,0.15294 -0.06904,0.15294 -0.02635,0 -0.04299,-0.007 -0.06408,-0.0285 z m -0.891671,-0.17031 c -0.03792,-0.0379 -0.04141,-0.0652 -0.01407,-0.11007 0.03626,-0.0595 0.130153,-0.0524 0.160777,0.0122 0.01976,0.0416 0.01166,0.0752 -0.02576,0.1067 -0.04138,0.0348 -0.08015,0.032 -0.120945,-0.009 z m 1.330086,-0.0928 c -0.06474,-0.0648 -0.0029,-0.17187 0.08767,-0.15196 0.05666,0.0124 0.08452,0.0772 0.05814,0.13506 -0.02361,0.0518 -0.101817,0.0609 -0.145813,0.0169 z m -0.807885,-0.0553 c -0.395962,-0.1057 -0.587907,-0.53266 -0.407502,-0.90643 0.04894,-0.10139 0.172109,-0.22217 0.28085,-0.27539 0.108632,-0.0532 0.202752,-0.0728 0.318002,-0.0663 0.26093,0.0147 0.484552,0.1857 0.569248,0.43545 0.03018,0.089 0.03645,0.23641 0.01429,0.33602 -0.05116,0.23 -0.236132,0.41891 -0.467606,0.47757 -0.07345,0.0186 -0.23602,0.0182 -0.30728,-7.9e-4 z m 0.314654,-0.0866 c 0.143832,-0.0375 0.26131,-0.13251 0.322056,-0.26053 0.04234,-0.0892 0.05508,-0.15058 0.05477,-0.26384 -3.19e-4,-0.10648 -0.01057,-0.15639 -0.04874,-0.23637 -0.08641,-0.18111 -0.255911,-0.29363 -0.457639,-0.30383 -0.158822,-0.008 -0.297392,0.0446 -0.40763,0.15489 -0.210891,0.21094 -0.211263,0.54801 -8.71e-4,0.75958 0.133958,0.13469 0.357626,0.19709 0.538014,0.1501 z m 4.605245,-0.0123 c -0.03774,-0.0188 -0.05662,-0.0666 -0.04487,-0.11338 0.0074,-0.0293 0.05752,-0.0643 0.09222,-0.0643 0.02826,0 0.08914,0.0587 0.08914,0.0861 0,0.0752 -0.07226,0.12373 -0.136498,0.0917 z m -5.730722,-0.0171 c -0.03269,-0.0182 -0.04652,-0.0428 -0.04652,-0.0827 0,-0.0411 0.01423,-0.065 0.04971,-0.0833 0.06074,-0.0314 0.130083,0.0133 0.130083,0.0839 0,0.0691 -0.07436,0.11495 -0.133273,0.0821 z m 6.396265,-0.034 c -0.02253,-0.009 -0.05166,-0.056 -0.05166,-0.0832 0,-0.0255 0.03036,-0.07 0.05565,-0.0815 0.03675,-0.0168 0.06724,-0.0125 0.09842,0.0138 0.03729,0.0314 0.04552,0.0651 0.02598,0.10625 -0.02285,0.0482 -0.07486,0.0663 -0.128388,0.0447 z m -1.357913,-0.10633 c -0.08358,-0.0836 0.03479,-0.21026 0.124424,-0.13314 0.0227,0.0195 0.02734,0.0312 0.02734,0.0691 0,0.0378 -0.0046,0.0495 -0.02734,0.0691 -0.03909,0.0336 -0.08778,0.0317 -0.124424,-0.005 z m 1.917798,-0.0102 c -0.03981,-0.0313 -0.05119,-0.0703 -0.03224,-0.11023 0.03342,-0.0704 0.131504,-0.0738 0.166729,-0.006 0.02141,0.0414 0.0168,0.0658 -0.01924,0.10188 -0.03862,0.0386 -0.07786,0.0434 -0.115252,0.014 z m -5.03147,-0.17053 c -0.08075,-0.0349 -0.06579,-0.15478 0.02207,-0.17684 0.03211,-0.008 0.06659,0.009 0.09489,0.0472 0.05022,0.0676 -0.03695,0.16424 -0.11696,0.12964 z m -2.01685,-0.0878 c -0.03199,-0.0139 -0.06152,-0.0578 -0.06152,-0.0916 0,-0.0283 0.04495,-0.0768 0.07786,-0.084 0.03795,-0.008 0.0774,0.0117 0.100261,0.051 0.04259,0.0732 -0.03755,0.15886 -0.116596,0.12468 z m 7.586871,-0.0129 c -0.04057,-0.0406 -0.04103,-0.0896 -0.0012,-0.1294 0.01702,-0.017 0.03877,-0.0285 0.05407,-0.0285 0.120618,0 0.136754,0.16613 0.01769,0.18211 -0.03618,0.005 -0.04423,0.002 -0.07053,-0.0242 z m 0.562407,-0.32899 c -0.06635,-0.036 -0.06168,-0.1318 0.008,-0.1649 0.0281,-0.0133 0.03663,-0.0136 0.06441,-0.002 0.04122,0.0172 0.05599,0.0357 0.06296,0.0786 0.0049,0.0304 0.0013,0.039 -0.02873,0.0691 -0.0374,0.0374 -0.06422,0.0422 -0.106694,0.0192 z m -8.100084,-0.0834 c -0.04925,-0.0251 -0.05676,-0.10305 -0.01404,-0.14578 0.08334,-0.0833 0.204348,0.0348 0.129863,0.12681 -0.02005,0.0248 -0.08388,0.0352 -0.115823,0.019 z m 1.879467,-0.11553 c -0.05716,-0.0348 -0.0558,-0.12034 0.0025,-0.15636 0.04275,-0.0265 0.08238,-0.0192 0.116343,0.0211 0.03512,0.0418 0.03242,0.0804 -0.0085,0.12132 -0.03798,0.038 -0.0652,0.0414 -0.110317,0.0139 z m 6.732969,-0.25528 c -0.04917,-0.0238 -0.05678,-0.10251 -0.01404,-0.14526 0.04592,-0.0459 0.121733,-0.0308 0.146619,0.0293 0.03346,0.0808 -0.05158,0.15517 -0.13258,0.11594 z m 5.76331,-0.20224 c -0.02227,-0.0223 -0.02848,-0.0373 -0.02848,-0.0687 0,-0.11303 0.163931,-0.12011 0.181799,-0.008 0.0051,0.0322 0.0019,0.0402 -0.02858,0.0707 -0.04443,0.0444 -0.0843,0.0463 -0.124739,0.006 z m -12.792002,-0.0585 c -0.04044,-0.0404 -0.03856,-0.0803 0.0059,-0.12476 0.03049,-0.0305 0.03845,-0.0337 0.07063,-0.0286 0.112235,0.0179 0.105157,0.18184 -0.0078,0.18184 -0.03142,0 -0.04639,-0.006 -0.06866,-0.0285 z m 12.270432,-0.12724 c -0.03046,-0.0123 -0.06224,-0.0575 -0.06224,-0.0885 0,-0.0337 0.04001,-0.0828 0.07454,-0.0915 0.05261,-0.0132 0.110571,0.0351 0.110571,0.0921 0,0.0322 -0.02539,0.0731 -0.05331,0.0858 -0.02929,0.0133 -0.04084,0.0137 -0.06956,0.002 z m -4.573798,-0.0774 c -0.03268,-0.0327 -0.03648,-0.067 -0.01201,-0.10846 0.06108,-0.10342 0.207852,-0.0183 0.157822,0.0916 -0.02361,0.0518 -0.101817,0.0609 -0.145814,0.0169 z m -2.70474,-0.0788 c -0.02237,-0.009 -0.05166,-0.0559 -0.05166,-0.0827 0,-0.0278 0.02714,-0.069 0.05331,-0.0809 0.04151,-0.0189 0.07264,-0.0139 0.103319,0.0169 0.07421,0.0742 -0.0061,0.18662 -0.104972,0.14681 z m -0.507041,-0.0241 c -0.04407,-0.0192 -0.0683,-0.071 -0.05181,-0.11078 0.01832,-0.0443 0.04592,-0.0643 0.08849,-0.0643 0.102341,0 0.128318,0.13611 0.03354,0.17573 -0.03895,0.0163 -0.03113,0.0163 -0.07022,-7.9e-4 z m 7.132632,-0.0203 c -0.01805,-0.0191 -0.03281,-0.0429 -0.03281,-0.0528 0,-0.0325 0.03329,-0.0769 0.06994,-0.0935 0.03447,-0.0156 0.0373,-0.0154 0.06902,0.004 0.06302,0.0389 0.07184,0.0946 0.02277,0.1437 -0.04576,0.0458 -0.08466,0.0453 -0.128913,-0.002 z m -0.700957,-0.10052 c -0.0165,-0.0101 -0.0358,-0.0323 -0.04288,-0.0494 -0.01762,-0.0425 0.0055,-0.0916 0.05399,-0.11476 0.03342,-0.016 0.03643,-0.0158 0.07063,0.002 0.07071,0.038 0.07666,0.11448 0.01227,0.15788 -0.03981,0.0268 -0.05513,0.0274 -0.09401,0.004 z m -11.295547,-0.004 c -0.08054,-0.0408 -0.05589,-0.15727 0.03589,-0.16958 0.03627,-0.005 0.04429,-0.002 0.07062,0.0242 0.07671,0.0767 -0.0095,0.19444 -0.106506,0.14537 z m 8.835574,-0.0452 c -0.02108,-0.0211 -0.02848,-0.0377 -0.02848,-0.0641 0,-0.0264 0.0074,-0.043 0.02848,-0.0641 0.03981,-0.0398 0.08881,-0.0394 0.129371,0.001 0.02633,0.0263 0.02907,0.0344 0.02421,0.0706 -0.01101,0.0821 -0.0965,0.11342 -0.15358,0.0563 z m -4.418285,-0.009 c -0.0165,-0.0103 -0.03543,-0.0318 -0.04207,-0.0478 -0.02775,-0.067 0.04877,-0.14717 0.114508,-0.11994 0.04445,0.0184 0.06429,0.0459 0.06429,0.0891 0,0.0722 -0.07654,0.11626 -0.136729,0.0787 z m 1.402383,-0.0124 c -0.04925,-0.0251 -0.05676,-0.10305 -0.01404,-0.14578 0.08334,-0.0834 0.204346,0.0348 0.129862,0.12681 -0.02005,0.0248 -0.08388,0.0352 -0.115823,0.019 z m 4.700421,-0.0156 c -0.05342,-0.0331 -0.06183,-0.0967 -0.01854,-0.13998 0.02108,-0.0211 0.03772,-0.0285 0.06408,-0.0285 0.093,0 0.126604,0.12772 0.04474,0.17006 -0.03688,0.0191 -0.05755,0.0187 -0.09028,-0.002 z m -0.8564,-0.0313 c -0.0583,-0.0583 -0.02114,-0.15667 0.0592,-0.15667 0.04772,0 0.09743,0.0475 0.09743,0.093 0,0.0255 -0.03037,0.07 -0.05565,0.0816 -0.03918,0.0179 -0.07083,0.0122 -0.100977,-0.0179 z m -5.664618,-0.25656 c -0.01716,-0.0148 -0.0273,-0.0353 -0.03099,-0.0629 -0.0049,-0.0363 -0.0021,-0.0443 0.02421,-0.0706 0.02227,-0.0223 0.03861,-0.0297 0.0653,-0.0297 0.02669,0 0.04303,0.007 0.0653,0.0297 0.02633,0.0263 0.02907,0.0344 0.02421,0.0706 -0.0069,0.0511 -0.04243,0.0848 -0.0895,0.0848 -0.02019,0 -0.04291,-0.009 -0.05851,-0.0219 z m 2.137805,-0.0163 c -0.03665,-0.0367 -0.03859,-0.0853 -0.005,-0.12445 0.01953,-0.0227 0.03124,-0.0273 0.06904,-0.0273 0.0378,0 0.04952,0.005 0.06904,0.0273 0.05159,0.06 0.0096,0.15294 -0.06904,0.15294 -0.02635,0 -0.04299,-0.007 -0.06408,-0.0285 z m -6.663922,-0.01 c -0.08103,-0.0811 0.0308,-0.20761 0.120856,-0.13675 0.0301,0.0237 0.04248,0.0756 0.02578,0.10817 -0.03207,0.0625 -0.09956,0.0757 -0.14664,0.0286 z m 4.247763,-0.39954 c -0.03665,-0.0366 -0.03859,-0.0853 -0.005,-0.12445 0.03135,-0.0365 0.10058,-0.0391 0.134533,-0.005 0.03396,0.034 0.03131,0.1032 -0.0051,0.13456 -0.03909,0.0336 -0.08778,0.0317 -0.124424,-0.005 z m 2.653677,0.009 c -0.02253,-0.009 -0.05166,-0.056 -0.05166,-0.0832 0,-0.0255 0.03036,-0.07 0.05565,-0.0815 0.03675,-0.0168 0.06724,-0.0125 0.09842,0.0138 0.03728,0.0314 0.04552,0.065 0.02598,0.10624 -0.02285,0.0482 -0.07486,0.0663 -0.128388,0.0447 z m -9.565331,-0.0234 c -0.03408,-0.0341 -0.03961,-0.0675 -0.01748,-0.10539 0.01023,-0.0175 0.02931,-0.0374 0.04241,-0.0443 0.04858,-0.0254 0.118735,0.0102 0.131104,0.0665 0.007,0.0318 -0.01539,0.0816 -0.04342,0.0966 -0.03416,0.0183 -0.08721,0.0119 -0.112626,-0.0135 z m -0.771932,-0.0401 c -0.02363,-0.0165 -0.03725,-0.0692 -0.02772,-0.10715 0.0071,-0.0282 0.05784,-0.063 0.0919,-0.0631 0.01324,-2e-5 0.03738,0.0145 0.05725,0.0343 0.03049,0.0305 0.0337,0.0384 0.02858,0.0707 -0.0109,0.0685 -0.09385,0.10459 -0.150016,0.0652 z m 9.129185,-0.026 c -0.02699,-0.013 -0.05506,-0.0709 -0.04801,-0.099 0.0029,-0.0117 0.0144,-0.031 0.02548,-0.0429 0.07211,-0.0774 0.201297,0.008 0.151624,0.10028 -0.02609,0.0484 -0.07937,0.0656 -0.129084,0.0416 z m 0.454954,-0.007 c -0.111795,-0.043 -0.176617,-0.093 -0.232299,-0.1791 -0.06151,-0.0951 -0.08238,-0.1735 -0.07785,-0.29255 0.0033,-0.0865 0.0077,-0.10755 0.03455,-0.16468 0.114755,-0.24431 0.405516,-0.33471 0.623431,-0.19383 0.23719,0.15333 0.277957,0.50537 0.08229,0.71063 -0.05973,0.0627 -0.09435,0.0854 -0.173919,0.11428 -0.08043,0.0292 -0.188323,0.0314 -0.256198,0.005 z m -8.083393,-0.0301 c -0.02253,-0.009 -0.05166,-0.056 -0.05166,-0.0832 0,-0.009 0.0073,-0.0284 0.01622,-0.0435 0.05863,-0.0993 0.204973,-0.0276 0.162273,0.0795 -0.01997,0.0501 -0.07176,0.0693 -0.126839,0.0471 z m 0.585391,-0.26281 c -0.03108,-0.0126 -0.06224,-0.0577 -0.06224,-0.0902 0,-0.0343 0.05517,-0.0952 0.08625,-0.0952 0.100922,0 0.135119,0.13698 0.04489,0.17981 -0.03564,0.0169 -0.0399,0.0173 -0.0689,0.006 z m -2.729006,-0.0292 c -0.05586,-0.0341 -0.05571,-0.12214 3.19e-4,-0.15703 0.05786,-0.0361 0.128202,3e-5 0.139839,0.0718 0.0051,0.0316 0.0018,0.0397 -0.02856,0.0701 -0.03925,0.0393 -0.06604,0.0429 -0.111549,0.0152 z m 11.011238,-0.0238 c -0.04677,-0.0468 -0.03914,-0.11918 0.01555,-0.14747 0.0423,-0.0219 0.07524,-0.0175 0.10703,0.0143 0.03071,0.0307 0.03682,0.0692 0.01766,0.11128 -0.02214,0.0486 -0.101183,0.0609 -0.14024,0.0219 z m -2.861835,-0.026 c -0.02128,-0.0124 -0.04628,-0.0596 -0.04628,-0.0874 0,-0.0115 0.01546,-0.0364 0.03436,-0.0553 0.03023,-0.0303 0.03859,-0.0337 0.06959,-0.0287 0.124021,0.0201 0.111043,0.18302 -0.01447,0.18159 -0.01439,-2.1e-4 -0.03383,-0.005 -0.04321,-0.0102 z m 1.564978,-0.11209 c -0.06718,-0.0331 -0.06933,-0.12454 -0.0038,-0.16324 0.01511,-0.009 0.03488,-0.0162 0.04394,-0.0162 0.0091,0 0.02884,0.007 0.04394,0.0162 0.06624,0.0391 0.06323,0.13103 -0.0054,0.16358 -0.03873,0.0184 -0.04076,0.0184 -0.0787,-3.2e-4 z m -8.412322,-0.1105 c -0.05615,-0.0562 -0.02437,-0.1428 0.05635,-0.15362 0.03623,-0.005 0.04426,-0.002 0.07058,0.0242 0.04056,0.0406 0.04103,0.0896 0.0012,0.1294 -0.02109,0.0211 -0.03772,0.0285 -0.06408,0.0285 -0.02636,0 -0.04299,-0.007 -0.06408,-0.0285 z m 2.054242,-0.0257 c -0.03262,-0.0177 -0.04652,-0.0423 -0.04652,-0.0823 0,-0.0411 0.01423,-0.065 0.04971,-0.0833 0.03605,-0.0187 0.0765,-0.0116 0.104222,0.0181 0.04381,0.047 0.03516,0.10971 -0.01973,0.14319 -0.03765,0.023 -0.05206,0.0237 -0.08768,0.004 z m -2.541371,-0.0718 c -0.02108,-0.0211 -0.02848,-0.0377 -0.02848,-0.0641 0,-0.0264 0.0074,-0.043 0.02848,-0.0641 0.03981,-0.0398 0.08881,-0.0394 0.129372,0.001 0.02633,0.0263 0.02907,0.0344 0.02421,0.0706 -0.011,0.0821 -0.0965,0.11342 -0.153581,0.0563 z m 0.988297,-0.0316 c -0.04372,-0.0212 -0.05592,-0.0956 -0.02261,-0.13797 0.04076,-0.0518 0.129728,-0.0394 0.155002,0.0216 0.03399,0.0821 -0.05028,0.15616 -0.132392,0.11639 z m 9.027071,-0.0561 c -0.02108,-0.0211 -0.02848,-0.0377 -0.02848,-0.0641 0,-0.0433 0.04343,-0.0926 0.0816,-0.0926 0.0529,0 0.103504,0.0448 0.103504,0.0916 0,0.0284 -0.0236,0.0659 -0.05013,0.0796 -0.04178,0.0216 -0.07484,0.0171 -0.106504,-0.0146 z m -11.295767,-0.032 c -0.04679,-0.0268 -0.06339,-0.0807 -0.03807,-0.12355 0.03839,-0.065 0.125067,-0.0656 0.163116,-10e-4 0.02413,0.0409 0.01993,0.0666 -0.0169,0.1034 -0.03512,0.0351 -0.07159,0.0423 -0.108143,0.0214 z m 10.409192,-0.0654 c -0.06424,-0.0643 -0.0067,-0.16938 0.08341,-0.15247 0.04147,0.008 0.06393,0.034 0.0704,0.0823 0.0046,0.0343 0.0015,0.043 -0.02443,0.069 -0.04057,0.0406 -0.08957,0.041 -0.129373,0.001 z m -8.824058,-0.0101 c -0.221428,-0.0598 -0.389158,-0.22895 -0.451143,-0.45494 -0.01734,-0.0632 -0.01997,-0.0934 -0.01595,-0.18329 0.008,-0.17781 0.06226,-0.30363 0.183003,-0.42406 0.0735,-0.0733 0.143622,-0.11751 0.24476,-0.15428 0.06451,-0.0234 0.08424,-0.0259 0.202983,-0.0255 0.117111,4e-4 0.139297,0.003 0.202437,0.0262 0.101479,0.0368 0.230824,0.11834 0.301303,0.18988 0.150191,0.15246 0.204493,0.38934 0.135043,0.58909 -0.03533,0.1016 -0.06886,0.15145 -0.165862,0.24657 -0.151986,0.14903 -0.265687,0.20075 -0.453436,0.20628 -0.08868,0.003 -0.126866,-7.9e-4 -0.183143,-0.0159 z m 0.295829,-0.079 c 0.0946,-0.0171 0.189802,-0.0699 0.260128,-0.14451 0.106928,-0.11337 0.148871,-0.23569 0.140679,-0.41026 -0.006,-0.1277 -0.02998,-0.19981 -0.09812,-0.29499 -0.191793,-0.2679 -0.581197,-0.29923 -0.814818,-0.0656 -0.107504,0.10753 -0.157272,0.22779 -0.157272,0.38004 0,0.15247 0.0496,0.27212 0.157991,0.3811 0.128081,0.12878 0.324263,0.18793 0.511413,0.15418 z m 6.550486,0.0696 c -0.0583,-0.0583 -0.02114,-0.15666 0.05921,-0.15666 0.04703,0 0.09743,0.0474 0.09743,0.0916 0,0.0284 -0.0236,0.0659 -0.05013,0.0796 -0.04178,0.0216 -0.07484,0.0171 -0.106505,-0.0146 z m 2.435644,-0.078 c -0.03665,-0.0367 -0.0386,-0.0854 -0.005,-0.12445 0.03135,-0.0365 0.10058,-0.0391 0.134533,-0.005 0.03395,0.034 0.03131,0.1032 -0.0051,0.13456 -0.03909,0.0336 -0.08778,0.0317 -0.124424,-0.005 z m -9.942522,-0.0532 c -0.03662,-0.0366 -0.04069,-0.0604 -0.01788,-0.10451 0.01603,-0.031 0.06575,-0.0584 0.09141,-0.0505 0.03947,0.0123 0.05932,0.0279 0.07342,0.0576 0.01348,0.0284 0.01366,0.0363 0.0015,0.0655 -0.02984,0.0714 -0.0949,0.0854 -0.148426,0.0318 z m 2.76654,-0.15367 c -0.04599,-0.0223 -0.05682,-0.10187 -0.019,-0.13969 0.0474,-0.0474 0.119198,-0.0391 0.1483,0.0172 0.04223,0.0817 -0.0443,0.16364 -0.1293,0.12247 z m -1.037009,-0.0561 c -0.08077,-0.0808 0.03074,-0.20765 0.12047,-0.13706 0.04941,0.0389 0.04197,0.12273 -0.01344,0.15139 -0.0423,0.0219 -0.07524,0.0174 -0.10703,-0.0143 z m 5.692416,-0.0792 c -0.0123,-0.005 -0.02879,-0.0244 -0.03667,-0.0432 -0.01221,-0.0292 -0.01237,-0.0389 -0.0011,-0.0659 0.01708,-0.0409 0.03562,-0.0556 0.07845,-0.0626 0.03038,-0.005 0.039,-0.001 0.06907,0.0288 0.0376,0.0376 0.04206,0.0614 0.01964,0.10472 -0.02382,0.0461 -0.07347,0.0608 -0.129421,0.0383 z m -8.591336,-0.15044 c -0.07783,-0.0327 -0.08279,-0.12646 -0.0088,-0.16631 0.08337,-0.0449 0.167865,0.0576 0.114542,0.13899 -0.0043,0.006 -0.02296,0.0182 -0.04156,0.0259 -0.02837,0.0118 -0.03873,0.0121 -0.06417,0.001 z m 1.076113,-0.0314 c -0.06231,-0.0387 -0.06147,-0.12473 0.0016,-0.16199 0.04085,-0.0241 0.06654,-0.0199 0.103373,0.0169 0.05042,0.0504 0.04091,0.11737 -0.02085,0.14668 -0.03972,0.0188 -0.05153,0.0186 -0.08412,-0.002 z m 2.875005,-0.2944 c -0.08303,-0.083 0.04231,-0.20893 0.129648,-0.13021 0.02291,0.0207 0.03174,0.075 0.0177,0.10887 -0.02308,0.0557 -0.101599,0.0671 -0.147344,0.0213 z m -0.915896,-0.062 c -0.06671,-0.0512 -0.04069,-0.15618 0.04199,-0.16935 0.03236,-0.005 0.04012,-0.002 0.07187,0.0298 0.03175,0.0317 0.03497,0.0395 0.02981,0.0719 -0.0076,0.048 -0.04483,0.0802 -0.09222,0.0798 -0.01979,-2.1e-4 -0.04295,-0.006 -0.05145,-0.0122 z m -1.763312,-0.0647 c -0.03981,-0.0398 -0.03934,-0.0888 0.0012,-0.1294 0.02612,-0.0261 0.03451,-0.0291 0.06963,-0.0243 0.05604,0.008 0.08091,0.0354 0.08091,0.0908 0,0.0366 -0.0048,0.0486 -0.02734,0.0679 -0.03909,0.0336 -0.08778,0.0317 -0.124424,-0.005 z m -1.281724,-0.16807 c -0.01145,-0.006 -0.02569,-0.0208 -0.03166,-0.0339 -0.02841,-0.0624 0.0039,-0.12614 0.06926,-0.13654 0.03236,-0.005 0.04012,-0.002 0.07187,0.0298 0.03175,0.0318 0.03497,0.0395 0.02981,0.0719 -0.01042,0.0654 -0.07762,0.0986 -0.139282,0.0687 z m 1.701404,-0.12744 c -0.0134,-0.007 -0.03299,-0.0287 -0.04354,-0.0483 -0.01844,-0.0342 -0.01853,-0.037 -0.0023,-0.0709 0.02338,-0.049 0.07156,-0.0693 0.118302,-0.0498 0.04061,0.017 0.06772,0.064 0.05922,0.10271 -0.01243,0.0566 -0.08248,0.0919 -0.131637,0.0663 z m 7.856944,-0.0605 c -0.05233,-0.0524 -0.01902,-0.14594 0.0562,-0.15792 0.03236,-0.005 0.04012,-0.002 0.07187,0.0298 0.03175,0.0318 0.03497,0.0395 0.02981,0.0719 -0.01197,0.0752 -0.105551,0.10856 -0.157886,0.0562 z m -5.439713,-0.0189 c -0.08236,-0.0457 -0.05098,-0.17155 0.04277,-0.17155 0.02635,0 0.04299,0.007 0.06408,0.0285 0.07549,0.0755 -0.01357,0.19478 -0.106846,0.14307 z m 5.94563,-0.0116 c -0.05521,-0.0271 -0.07047,-0.10378 -0.02893,-0.14533 0.04764,-0.0476 0.10213,-0.0413 0.145358,0.0169 0.05038,0.0679 -0.039,0.16644 -0.116432,0.12842 z m -7.069068,-0.15062 c -0.02631,-0.0263 -0.02907,-0.0344 -0.02422,-0.0705 0.01597,-0.11909 0.182071,-0.10296 0.182071,0.0177 0,0.0153 -0.01146,0.0371 -0.02848,0.0541 -0.03981,0.0398 -0.08881,0.0393 -0.129372,-0.001 z m 6.690248,-0.042 c -0.222557,-0.073 -0.349394,-0.29694 -0.292324,-0.51609 0.02092,-0.0803 0.0488,-0.12969 0.108824,-0.19263 0.09567,-0.10032 0.238092,-0.14888 0.371044,-0.1265 0.258682,0.0436 0.420022,0.30091 0.343659,0.5482 -0.03621,0.11725 -0.117988,0.21038 -0.232306,0.26455 -0.05787,0.0274 -0.07587,0.0311 -0.162501,0.0331 -0.06005,0.001 -0.112377,-0.003 -0.136396,-0.0106 z m 0.288848,-0.0765 c 0.106749,-0.0489 0.177749,-0.14999 0.191744,-0.27291 0.02002,-0.17582 -0.05938,-0.32482 -0.210966,-0.39589 -0.04784,-0.0225 -0.06776,-0.0259 -0.147844,-0.0257 -0.0791,1.1e-4 -0.100344,0.004 -0.146139,0.0254 -0.07935,0.0374 -0.140262,0.0965 -0.177444,0.17209 -0.02974,0.0605 -0.03202,0.0721 -0.03202,0.16271 0,0.0881 0.0028,0.10323 0.02844,0.15553 0.04782,0.0974 0.141956,0.17373 0.246747,0.20002 0.06743,0.0169 0.18653,0.007 0.247482,-0.0212 z m -0.728042,0.0299 c -0.02314,-0.0112 -0.05281,-0.057 -0.05281,-0.0814 0,-0.0259 0.03018,-0.0704 0.05565,-0.082 0.03821,-0.0174 0.06891,-0.0122 0.102023,0.0174 0.02474,0.0221 0.03133,0.0357 0.03133,0.0646 0,0.0663 -0.07495,0.11115 -0.136198,0.0814 z m -9.036211,-0.11478 c -0.04043,-0.0404 -0.03856,-0.0803 0.0059,-0.12477 0.03048,-0.0305 0.03845,-0.0337 0.07063,-0.0286 0.06512,0.0104 0.09952,0.0785 0.06878,0.13619 -0.01747,0.0328 -0.03885,0.045 -0.07953,0.0453 -0.02847,2.1e-4 -0.04402,-0.006 -0.06576,-0.0282 z m 10.346616,-0.01 c -0.04043,-0.0404 -0.03856,-0.0803 0.0059,-0.12477 0.03006,-0.0301 0.03869,-0.0336 0.06907,-0.0287 0.04272,0.007 0.06138,0.0217 0.07826,0.0621 0.03812,0.0912 -0.08183,0.16275 -0.153202,0.0914 z m -6.172146,-0.24826 c -0.05353,-0.0535 -0.03957,-0.11862 0.03184,-0.14846 0.02918,-0.0122 0.03711,-0.012 0.06557,0.002 0.07082,0.0336 0.07435,0.13005 0.0061,0.16538 -0.04306,0.0223 -0.06706,0.018 -0.103466,-0.0184 z m -1.832554,-0.10522 c -0.01177,-0.006 -0.0286,-0.0255 -0.03738,-0.044 -0.01327,-0.028 -0.01396,-0.0385 -0.0041,-0.0624 0.01592,-0.0384 0.05411,-0.0671 0.0895,-0.0671 0.03428,0 0.09514,0.0552 0.09514,0.0863 0,0.0721 -0.07722,0.11909 -0.143191,0.0872 z m 6.645451,0.002 c -0.01122,-0.005 -0.02804,-0.0243 -0.03738,-0.044 -0.01425,-0.0301 -0.01507,-0.0404 -0.0051,-0.0645 0.01592,-0.0384 0.05411,-0.0671 0.0895,-0.0671 0.03476,0 0.09514,0.0554 0.09514,0.0872 0,0.0711 -0.0729,0.11648 -0.142177,0.0885 z m -8.56853,-0.0615 c -0.04348,-0.0334 -0.05076,-0.10244 -0.01461,-0.1386 0.06322,-0.0632 0.161592,-0.0209 0.161592,0.0695 0,0.0392 -0.04926,0.0817 -0.09424,0.0813 -0.02051,-2.1e-4 -0.04424,-0.006 -0.05274,-0.0122 z m 9.559773,-0.0706 c -0.03702,-0.0312 -0.04663,-0.0716 -0.02634,-0.1108 0.03647,-0.0705 0.132827,-0.0667 0.17052,0.007 0.0257,0.0501 -0.02748,0.12854 -0.08719,0.12854 -0.01545,0 -0.04069,-0.0109 -0.05699,-0.0246 z m 0.731302,-0.0392 c -0.07634,-0.0321 -0.08047,-0.12623 -0.0073,-0.16566 0.0918,-0.0495 0.178546,0.0787 0.101724,0.15029 -0.0267,0.0249 -0.05924,0.0302 -0.09446,0.0154 z m -2.677383,-0.11546 c -0.0408,-0.0408 -0.04362,-0.0796 -0.0088,-0.12097 0.03137,-0.0373 0.06504,-0.0455 0.106221,-0.026 0.07081,0.0336 0.07433,0.13005 0.006,0.16537 -0.04306,0.0223 -0.06706,0.018 -0.103466,-0.0184 z m -7.043997,0.0139 c -0.03046,-0.0123 -0.06224,-0.0575 -0.06224,-0.0885 0,-0.0352 0.04132,-0.084 0.07793,-0.092 0.05105,-0.0112 0.10718,0.0378 0.10718,0.0935 0,0.0314 -0.02571,0.0723 -0.05331,0.0849 -0.02929,0.0133 -0.04084,0.0137 -0.06956,0.002 z m 8.280954,-0.0408 c -0.04372,-0.0212 -0.05592,-0.0956 -0.02261,-0.13797 0.04076,-0.0518 0.12973,-0.0394 0.155003,0.0216 0.03399,0.0821 -0.05028,0.15615 -0.132392,0.11639 z m -7.593763,-0.0268 c -0.03665,-0.0367 -0.03859,-0.0853 -0.005,-0.12446 0.01937,-0.0225 0.03134,-0.0273 0.06793,-0.0273 0.05534,0 0.08324,0.0249 0.09075,0.0809 0.0047,0.0351 0.0018,0.0435 -0.02434,0.0696 -0.04056,0.0406 -0.08957,0.041 -0.129373,0.001 z m 7.963799,-0.0289 c -0.08088,-0.0504 -0.03272,-0.1886 0.05996,-0.17202 0.03913,0.007 0.08281,0.056 0.08281,0.093 0,0.0369 -0.04368,0.086 -0.08281,0.093 -0.0195,0.004 -0.03946,-0.001 -0.05996,-0.0139 z m -2.62064,-0.0108 c -0.05179,-0.0209 -0.06999,-0.10398 -0.03177,-0.14502 0.0313,-0.0336 0.06305,-0.0422 0.09939,-0.027 0.04039,0.0169 0.0552,0.0356 0.06213,0.0783 0.0049,0.0304 0.0013,0.039 -0.02873,0.0691 -0.03479,0.0348 -0.06046,0.0411 -0.101026,0.0247 z m 1.032782,-0.41102 c -0.04917,-0.0238 -0.05678,-0.10251 -0.01404,-0.14526 0.04592,-0.0459 0.121732,-0.0308 0.146619,0.0293 0.03346,0.0808 -0.05158,0.15517 -0.13258,0.11593 z m 2.786924,-0.11669 c -0.02314,-0.0112 -0.05281,-0.057 -0.05281,-0.0814 0,-0.0259 0.03018,-0.0704 0.05565,-0.082 0.03821,-0.0174 0.06891,-0.0121 0.102023,0.0174 0.02474,0.0221 0.03133,0.0357 0.03133,0.0646 0,0.0663 -0.07495,0.11114 -0.136199,0.0814 z m -3.971759,-0.009 c -0.0268,-0.0156 -0.04828,-0.0653 -0.04152,-0.0961 0.0033,-0.015 0.01698,-0.0376 0.03039,-0.0502 0.0505,-0.0474 0.139853,-0.0185 0.15494,0.0502 0.007,0.0318 -0.01539,0.0816 -0.04341,0.0966 -0.02378,0.0128 -0.07817,0.0125 -0.100402,-4e-4 z m -1.308914,-0.10056 c -0.0364,-0.0364 -0.04068,-0.0604 -0.01841,-0.10349 0.05188,-0.10036 0.209943,-0.0316 0.166488,0.0725 -0.02949,0.0706 -0.09482,0.0843 -0.148079,0.031 z m -0.687573,-0.17845 c -0.05114,-0.0317 -0.06106,-0.0918 -0.02269,-0.13742 0.03137,-0.0373 0.06504,-0.0455 0.106221,-0.026 0.06931,0.0329 0.07194,0.13128 0.0044,0.1662 -0.03457,0.0179 -0.05573,0.0172 -0.08796,-0.003 z m 4.013201,-0.0231 c -0.02127,-0.0124 -0.04628,-0.0596 -0.04628,-0.0874 0,-0.0115 0.01546,-0.0364 0.03435,-0.0553 0.03023,-0.0302 0.03859,-0.0337 0.06959,-0.0287 0.124019,0.0201 0.111041,0.18302 -0.01447,0.1816 -0.01439,-2.1e-4 -0.03383,-0.005 -0.04321,-0.0102 z m -0.769418,-0.0436 c -0.03262,-0.0177 -0.04652,-0.0423 -0.04652,-0.0823 0,-0.0411 0.01423,-0.065 0.04971,-0.0833 0.03605,-0.0186 0.0765,-0.0116 0.104223,0.0181 0.04381,0.047 0.03516,0.10971 -0.01973,0.14318 -0.03765,0.023 -0.05206,0.0237 -0.08768,0.004 z m 1.097786,-0.0185 c -0.05233,-0.0523 -0.01903,-0.14594 0.05621,-0.15792 0.03236,-0.005 0.04012,-0.002 0.07187,0.0298 0.03175,0.0317 0.03497,0.0395 0.02981,0.0719 -0.01198,0.0752 -0.105551,0.10856 -0.157887,0.0562 z m -0.542705,-0.15227 c -0.02092,-0.0122 -0.04628,-0.0595 -0.04628,-0.0863 0,-0.0109 0.0127,-0.0341 0.02823,-0.0514 0.07174,-0.0803 0.201607,0.004 0.152525,0.0985 -0.0084,0.0163 -0.02377,0.0342 -0.03408,0.0397 -0.02378,0.0128 -0.07817,0.0125 -0.100402,-3.9e-4 z m 0.273316,-0.009 c -0.134158,-0.0709 -0.133052,-0.26618 0.0019,-0.33828 0.0591,-0.0316 0.136701,-0.0274 0.193778,0.0103 0.08507,0.0563 0.110844,0.18108 0.05409,0.26184 -0.01621,0.0231 -0.04682,0.0518 -0.06804,0.0638 -0.0498,0.0282 -0.130736,0.0292 -0.181745,0.002 z m -2.056656,-0.13209 c -0.05221,-0.0283 -0.06074,-0.0977 -0.01735,-0.14112 0.02108,-0.0211 0.03772,-0.0285 0.06408,-0.0285 0.04329,0 0.09255,0.0434 0.09255,0.0816 0,0.0378 -0.02042,0.0743 -0.05013,0.0896 -0.03371,0.0174 -0.05465,0.017 -0.08915,-0.002 z m 2.427681,-0.0103 c -0.07512,-0.0302 -0.07483,-0.13757 4.75e-4,-0.16876 0.0845,-0.035 0.161263,0.0649 0.109998,0.14309 -0.0043,0.006 -0.02293,0.0181 -0.04149,0.0258 -0.0294,0.0122 -0.03831,0.0122 -0.06896,-1.1e-4 z m 1.466919,-0.0175 c -0.05233,-0.0523 -0.01902,-0.14595 0.0562,-0.15793 0.03236,-0.005 0.04012,-0.002 0.07187,0.0298 0.03175,0.0318 0.03497,0.0395 0.02981,0.0719 -0.01197,0.0752 -0.10555,0.10856 -0.157886,0.0562 z m -6.630128,-0.0241 c -0.03665,-0.0367 -0.03859,-0.0854 -0.005,-0.12446 0.03135,-0.0365 0.100579,-0.0391 0.134532,-0.005 0.03395,0.034 0.03131,0.1032 -0.0051,0.13456 -0.03909,0.0336 -0.08777,0.0317 -0.124423,-0.005 z m 4.174468,-0.12159 c -0.04315,-0.0432 -0.04467,-0.0835 -0.0046,-0.12353 0.044,-0.044 0.122198,-0.035 0.145813,0.0169 0.01916,0.0421 0.01305,0.0806 -0.01766,0.11128 -0.04002,0.04 -0.08035,0.0385 -0.123506,-0.005 z m 0.753139,-0.14808 c -0.02862,-0.0155 -0.04583,-0.0481 -0.04583,-0.0866 0,-0.0296 0.0416,-0.079 0.07312,-0.087 0.04677,-0.0118 0.111984,0.0404 0.111984,0.0895 0,0.0342 -0.02467,0.075 -0.05331,0.088 -0.03312,0.0151 -0.05255,0.0142 -0.08597,-0.004 z m -0.421891,-0.0663 c -0.0364,-0.0364 -0.04068,-0.0604 -0.01841,-0.10349 0.03588,-0.0694 0.132551,-0.0648 0.169902,0.008 0.01642,0.032 0.0039,0.0753 -0.0302,0.10393 -0.04174,0.0351 -0.08037,0.0324 -0.121293,-0.009 z m -5.163681,-0.0544 c -0.03046,-0.0123 -0.06224,-0.0575 -0.06224,-0.0885 0,-0.0351 0.04128,-0.084 0.07763,-0.0919 0.05253,-0.0115 0.106882,0.0344 0.10726,0.0907 3.19e-4,0.0424 -0.01348,0.0665 -0.0483,0.0845 -0.03174,0.0164 -0.04435,0.0173 -0.07435,0.005 z m 3.587881,-0.12816 c -0.0099,-0.006 -0.02418,-0.0253 -0.03179,-0.0436 -0.01174,-0.0281 -0.01183,-0.0379 -6.33e-4,-0.0648 0.01707,-0.0409 0.03561,-0.0557 0.07845,-0.0626 0.03054,-0.005 0.03899,-10e-4 0.0703,0.03 0.03175,0.0318 0.03497,0.0395 0.02981,0.0719 -0.01045,0.0656 -0.08859,0.10258 -0.146177,0.0691 z m -1.751065,-0.0759 c -0.04002,-0.04 -0.03851,-0.0804 0.0046,-0.12353 0.03641,-0.0364 0.06041,-0.0407 0.103466,-0.0184 0.04668,0.0241 0.0625,0.0772 0.03719,0.12479 -0.01747,0.0328 -0.03885,0.045 -0.07953,0.0453 -0.02846,2.1e-4 -0.04402,-0.006 -0.06576,-0.0282 z m 5.260991,0 c -0.05708,-0.0571 -0.02573,-0.14261 0.05631,-0.15361 0.03628,-0.005 0.04429,-0.002 0.07062,0.0242 0.04056,0.0406 0.04102,0.0896 0.0012,0.1294 -0.02108,0.0211 -0.03772,0.0285 -0.06408,0.0285 -0.02636,0 -0.04299,-0.007 -0.06408,-0.0285 z m -4.662398,-0.002 c -0.04372,-0.0212 -0.05592,-0.0956 -0.02261,-0.13797 0.04076,-0.0518 0.12973,-0.0394 0.155003,0.0216 0.03399,0.0821 -0.05028,0.15616 -0.132393,0.11639 z m -1.13953,-0.22638 c -0.05326,-0.0533 -0.03958,-0.1186 0.03101,-0.1481 0.07689,-0.0322 0.15147,0.0573 0.110944,0.13305 -0.01205,0.0225 -0.05887,0.0482 -0.08788,0.0482 -0.01152,0 -0.03585,-0.0149 -0.05407,-0.0331 z m -1.939541,-0.0564 c -0.0535,-0.0258 -0.0536,-0.12191 -2.23e-4,-0.15451 0.0361,-0.022 0.0545,-0.0235 0.08986,-0.007 0.05637,0.0257 0.06921,0.10064 0.02483,0.14502 -0.03041,0.0304 -0.07344,0.0368 -0.114531,0.0169 z m 7.386615,-0.14636 c -0.03145,-0.0181 -0.0432,-0.0394 -0.04353,-0.0791 -4.35e-4,-0.0487 0.04189,-0.0943 0.0876,-0.0943 0.03681,0 0.0972,0.0542 0.0972,0.0872 0,0.029 -0.02567,0.0759 -0.04817,0.0879 -0.02452,0.0131 -0.06862,0.0123 -0.09309,-0.002 z m -2.729011,-0.008 c -0.03046,-0.0123 -0.06224,-0.0575 -0.06224,-0.0885 0,-0.0351 0.04128,-0.084 0.07763,-0.0919 0.05253,-0.0115 0.106883,0.0344 0.10726,0.0907 3.19e-4,0.0424 -0.01348,0.0665 -0.0483,0.0845 -0.03174,0.0164 -0.04435,0.0173 -0.07435,0.005 z m -3.180611,-0.33076 c -0.03086,-0.0309 -0.03737,-0.073 -0.01715,-0.11102 0.01734,-0.0326 0.03879,-0.045 0.07824,-0.0453 0.0474,-3.9e-4 0.08458,0.0318 0.09222,0.0798 0.0051,0.0322 0.0019,0.0402 -0.02858,0.0707 -0.04443,0.0444 -0.0843,0.0463 -0.124739,0.006 z m 3.652246,-0.0402 c -0.02597,-0.026 -0.02904,-0.0346 -0.02443,-0.069 0.0065,-0.0482 0.02892,-0.0745 0.0704,-0.0823 0.09014,-0.0169 0.147647,0.0882 0.08341,0.15246 -0.03981,0.0398 -0.08881,0.0394 -0.129372,-0.001 z m 1.774369,-0.009 c -0.06466,-0.0647 -0.0067,-0.16937 0.08432,-0.15229 0.105481,0.0198 0.08745,0.18077 -0.02025,0.18077 -0.02635,0 -0.04299,-0.007 -0.06408,-0.0285 z m -3.278951,0.007 c -0.04372,-0.0212 -0.05592,-0.0956 -0.02261,-0.13796 0.04076,-0.0518 0.129729,-0.0394 0.155001,0.0216 0.03399,0.0821 -0.05028,0.15616 -0.132391,0.11639 z m -0.856023,-0.0946 c -0.08204,-0.0377 -0.131097,-0.11466 -0.131097,-0.20582 0,-0.0689 0.02483,-0.12316 0.0766,-0.16748 0.127814,-0.10944 0.31803,-0.0479 0.361183,0.11685 0.04512,0.17226 -0.144529,0.33085 -0.306683,0.25645 z m -3.137887,-0.003 c -0.02315,-0.0112 -0.05281,-0.057 -0.05281,-0.0814 0,-0.0259 0.03018,-0.0704 0.05565,-0.082 0.03675,-0.0168 0.06724,-0.0125 0.09842,0.0138 0.03729,0.0314 0.04552,0.0651 0.02598,0.10625 -0.02304,0.0486 -0.07799,0.0673 -0.127241,0.0434 z m 6.746762,-0.0758 c -0.044,-0.044 -0.03494,-0.12222 0.0169,-0.14585 0.06228,-0.0284 0.126031,0.004 0.136425,0.0693 0.0051,0.0322 0.0019,0.0401 -0.02858,0.0707 -0.04443,0.0444 -0.0843,0.0463 -0.124738,0.006 z m -6.098103,0.004 c -0.162319,-0.035 -0.329612,-0.16625 -0.40292,-0.31611 -0.08623,-0.1763 -0.08489,-0.36336 0.0039,-0.54354 0.07397,-0.1501 0.227426,-0.27043 0.395356,-0.31001 0.08885,-0.0209 0.248078,-0.0139 0.328435,0.0145 0.193631,0.0684 0.342966,0.2319 0.392424,0.42971 0.0233,0.0932 0.01489,0.24509 -0.01888,0.34097 -0.100098,0.28419 -0.399367,0.449 -0.698313,0.38454 z m 5.424375,-0.0137 c -0.01339,-0.0105 -0.02999,-0.0328 -0.03689,-0.0494 -0.01747,-0.0422 0.0067,-0.0927 0.05384,-0.11236 0.02961,-0.0123 0.03832,-0.0124 0.06745,-2.2e-4 0.06819,0.0285 0.08027,0.10881 0.02354,0.15656 -0.03509,0.0295 -0.0748,0.0316 -0.107943,0.005 z m -2.063937,-0.20421 c -0.05708,-0.0571 -0.02573,-0.14261 0.05632,-0.15362 0.03627,-0.005 0.04429,-0.002 0.07062,0.0242 0.04056,0.0406 0.04103,0.0896 0.0012,0.1294 -0.02108,0.0211 -0.03772,0.0285 -0.06408,0.0285 -0.02635,0 -0.04299,-0.007 -0.06408,-0.0285 z m -2.402702,-0.1465 c -0.05947,-0.0363 -0.05236,-0.13018 0.01217,-0.16081 0.04164,-0.0198 0.07518,-0.0117 0.106671,0.0258 0.03482,0.0414 0.032,0.0802 -0.0088,0.12097 -0.03792,0.0379 -0.06521,0.0414 -0.110051,0.014 z m 2.299342,-0.19483 c -0.05722,-0.0349 -0.06771,-0.0872 -0.02715,-0.13545 0.03115,-0.037 0.07154,-0.0466 0.110776,-0.0263 0.03548,0.0184 0.04971,0.0422 0.04971,0.0833 0,0.0431 -0.01591,0.0677 -0.05406,0.0837 -0.04179,0.0175 -0.04214,0.0174 -0.07928,-0.005 z m -3.963474,-0.0517 c -0.01716,-0.0148 -0.0273,-0.0353 -0.03099,-0.0629 -0.0049,-0.0363 -0.0021,-0.0443 0.02421,-0.0706 0.02227,-0.0223 0.03861,-0.0297 0.06529,-0.0297 0.02669,0 0.04303,0.007 0.0653,0.0297 0.02632,0.0263 0.02907,0.0344 0.02421,0.0706 -0.01014,0.0756 -0.09252,0.11066 -0.148026,0.0629 z m 2.613971,-0.0955 c -0.02631,-0.0263 -0.02907,-0.0344 -0.02422,-0.0705 0.01597,-0.11909 0.182071,-0.10295 0.182071,0.0177 0,0.0153 -0.01146,0.037 -0.02848,0.0541 -0.03981,0.0398 -0.08881,0.0394 -0.129372,-0.001 z m 1.045497,-0.0813 c -0.07105,-0.0394 -0.06096,-0.14241 0.0166,-0.16946 0.05089,-0.0177 0.118722,0.0294 0.118722,0.0824 0,0.035 -0.02125,0.0718 -0.05013,0.0867 -0.03294,0.017 -0.05485,0.0171 -0.0852,3.2e-4 z m -0.756168,-0.0781 c -0.01293,-0.0129 -0.02653,-0.0355 -0.03021,-0.0502 -0.0089,-0.0356 0.01924,-0.087 0.05609,-0.1023 0.07887,-0.0327 0.156337,0.0557 0.115579,0.13189 -0.02555,0.0477 -0.103045,0.059 -0.141462,0.0206 z m 0.354901,-0.0342 c -0.08358,-0.0836 0.03479,-0.21027 0.124424,-0.13315 0.0227,0.0195 0.02734,0.0312 0.02734,0.0691 0,0.0378 -0.0046,0.0495 -0.02734,0.0691 -0.03909,0.0336 -0.08778,0.0317 -0.124424,-0.005 z m -1.779177,-0.10753 c -0.05948,-0.0363 -0.05236,-0.13018 0.01218,-0.16082 0.02893,-0.0137 0.03679,-0.0139 0.06603,-0.002 0.07824,0.0327 0.08722,0.12349 0.01635,0.16536 -0.03563,0.0211 -0.05643,0.0204 -0.09456,-0.003 z m -1.199838,-0.18097 c -0.03703,-0.0312 -0.04663,-0.0716 -0.02634,-0.1108 0.03647,-0.0705 0.132826,-0.0667 0.170521,0.007 0.0257,0.0501 -0.02748,0.12854 -0.08719,0.12854 -0.01545,0 -0.04069,-0.0109 -0.05699,-0.0246 z m 0.645443,-0.18391 c -0.01822,-0.0182 -0.03312,-0.0426 -0.03312,-0.0541 0,-0.029 0.02567,-0.0759 0.04817,-0.0879 0.07739,-0.0414 0.171216,0.0409 0.132327,0.11613 -0.03457,0.0669 -0.09566,0.0776 -0.147376,0.0258 z"
       id="path1852" />
    <path
       inkscape:original-d="m 38.855291,89.268021 c 12.027394,2.65e-4 24.054522,2.65e-4 36.081385,0"
       inkscape:path-effect="#path-effect1908"
       id="path1906"
       d="M 38.855291,89.268021 H 74.936676"
       style="fill:none;stroke:#ffffff;stroke-width:0.264583px;stroke-linecap:butt;stroke-linejoin:miter;stroke-opacity:1" />
    <text
       id="text1969"
       y="88.149834"
       x="127.15344"
       style="font-size:3.8293px;line-height:1.25;font-family:Candice;-inkscape-font-specification:Candice;letter-spacing:0px;word-spacing:0px;fill:#000000;stroke-width:0.0957326"
       xml:space="preserve"><tspan
         style="font-style:normal;font-variant:normal;font-weight:normal;font-stretch:normal;font-size:3.8293px;font-family:'Century Gothic';-inkscape-font-specification:'Century Gothic, Normal';font-variant-ligatures:normal;font-variant-caps:normal;font-variant-numeric:normal;font-variant-east-asian:normal;fill:#000000;stroke-width:0.0957326"
         y="88.149834"
         x="127.15344"
         id="tspan1967"
         sodipodi:role="line">Data space</tspan></text>
    <path
       style="fill:#000000;stroke:#000000;stroke-width:0.264583px;stroke-linecap:butt;stroke-linejoin:miter;stroke-opacity:1"
       d="m 112.84413,89.268021 h 36.08139"
       id="path1975"
       inkscape:path-effect="#path-effect1977"
       inkscape:original-d="m 112.84413,89.268021 c 12.02739,2.65e-4 24.05452,2.65e-4 36.08139,0" />
    <path
       inkscape:original-d="m 50.648809,95.438988 c 15.308299,-0.503706 30.742328,-1.007674 46.113096,-1.511906 15.370765,-0.504232 13.103435,2.14213 19.654765,3.212798"
       inkscape:path-effect="#path-effect1981"
       id="path1979"
       d="m 50.648809,95.438988 c 15.20728,-2.593958 30.768563,-3.104164 46.113096,-1.511906 6.606865,0.685576 13.173475,1.758964 19.654765,3.212798"
       style="fill:none;stroke:#808080;stroke-width:0.26458299;stroke-linecap:butt;stroke-linejoin:miter;stroke-opacity:1;marker-end:url(#Arrow1Lend);stroke-miterlimit:3.95000005;stroke-dasharray:0.79374896,0.26458299;stroke-dashoffset:0" />
    <text
       id="text2261"
       y="130.45514"
       x="84.451981"
       style="font-size:3.8293px;line-height:1.25;font-family:Candice;-inkscape-font-specification:Candice;letter-spacing:0px;word-spacing:0px;fill:#000000;stroke-width:0.0957326"
       xml:space="preserve"><tspan
         style="font-style:normal;font-variant:normal;font-weight:normal;font-stretch:normal;font-family:Arial;-inkscape-font-specification:Arial;fill:#000000;stroke-width:0.0957326"
         y="130.45514"
         x="84.451981"
         id="tspan2259"
         sodipodi:role="line">INFERENCE</tspan></text>
    <path
       sodipodi:nodetypes="csc"
       id="path2263"
       d="m 120.67219,108.64506 c -3.07333,-0.0443 -9.25442,2.27353 -12.60637,5.06355 -2.43125,2.02368 -10.409976,9.87939 -13.929286,12.15092"
       style="fill:none;stroke:#808080;stroke-width:0.264583;stroke-linecap:butt;stroke-linejoin:miter;stroke-miterlimit:3.9;stroke-dasharray:none;stroke-opacity:1;marker-end:url(#marker2325)" />
    <path
       inkscape:original-d="m 43.297662,98.355186 c 6.19201,8.998334 12.383754,17.996414 18.575232,26.994224 6.19148,8.99781 13.096472,2.85114 19.644312,4.27631"
       inkscape:path-effect="#path-effect2269"
       id="path2267"
       d="m 43.297662,98.355186 c 1.484619,11.240224 8.60747,21.591414 18.575232,26.994224 5.970667,3.23627 12.868674,4.73788 19.644312,4.27631"
       style="fill:none;stroke:#808080;stroke-width:0.26458299;stroke-linecap:butt;stroke-linejoin:miter;stroke-opacity:1;stroke-miterlimit:3.9;stroke-dasharray:none;marker-end:url(#marker2305)" />
    <path
       sodipodi:nodetypes="cssc"
       inkscape:original-d="m 93.35928,132.37669 c -9.977797,1.42571 8.30867,3.89598 -1.758748,5.27661 -5.033709,0.69031 -11.199916,5.04247 -17.259509,6.37082 -6.059594,1.32835 -13.902454,-0.46161 -16.619826,0.22871"
       inkscape:path-effect="#path-effect2277"
       id="path2275"
       d="m 93.35928,132.37669 c -0.09495,1.87451 -0.71007,3.71999 -1.758748,5.27661 -1.782493,2.64587 -4.717641,4.34562 -7.78279,5.23035 -3.065149,0.88473 -6.288231,1.03355 -9.476719,1.14047 -5.537715,0.1857 -11.079099,0.26195 -16.619826,0.22871"
       style="fill:none;stroke:#808080;stroke-width:0.264583;stroke-linecap:butt;stroke-linejoin:miter;stroke-miterlimit:3.9;stroke-dasharray:none;stroke-opacity:1;marker-end:url(#marker2295)" />
    <path
       inkscape:original-d="m 49.578498,146.4637 c 16.704608,3.51931 33.408955,7.03836 50.113035,10.55715 16.704077,3.51878 11.403767,-0.0888 17.105247,-0.13364"
       inkscape:path-effect="#path-effect2281"
       id="path2279"
       d="m 49.578498,146.4637 c 15.989701,6.18871 32.985577,9.76918 50.113035,10.55715 5.698647,0.26217 11.411397,0.21754 17.105247,-0.13364"
       style="fill:none;stroke:#808080;stroke-width:0.26458299;stroke-linecap:butt;stroke-linejoin:miter;stroke-opacity:1;stroke-miterlimit:3.95000005;stroke-dasharray:0.79374896,0.26458299;marker-end:url(#marker2285);stroke-dashoffset:0" />
    <text
       transform="rotate(-6.8450423)"
       id="text2473"
       y="103.59735"
       x="43.357018"
       style="font-size:3.59937px;line-height:1.25;font-family:Candice;-inkscape-font-specification:Candice;letter-spacing:0px;word-spacing:0px;stroke-width:0.0899845"
       xml:space="preserve"><tspan
         style="font-style:normal;font-variant:normal;font-weight:normal;font-stretch:normal;font-family:'EB Garamond';-inkscape-font-specification:'EB Garamond';fill:#999999;stroke-width:0.0899845"
         y="103.59735"
         x="43.357018"
         id="tspan2471"
         sodipodi:role="line">sampling</tspan></text>
    <text
       xml:space="preserve"
       style="font-size:3.59937px;line-height:1.25;font-family:Candice;-inkscape-font-specification:Candice;letter-spacing:0px;word-spacing:0px;stroke-width:0.0899845"
       x="98.823624"
       y="131.12418"
       id="text2477"
       transform="rotate(15.993802)"><tspan
         sodipodi:role="line"
         id="tspan2475"
         x="98.823624"
         y="131.12418"
         style="font-style:normal;font-variant:normal;font-weight:normal;font-stretch:normal;font-family:'EB Garamond';-inkscape-font-specification:'EB Garamond';fill:#999999;stroke-width:0.0899845">sampling</tspan></text>
    <text
       xml:space="preserve"
       style="font-size:3.59937px;line-height:1.25;font-family:Candice;-inkscape-font-specification:Candice;letter-spacing:0px;word-spacing:0px;stroke-width:0.0899845"
       x="5.3263969"
       y="155.20081"
       id="text2511"
       transform="rotate(-38.482025)"><tspan
         sodipodi:role="line"
         id="tspan2509"
         x="5.3263969"
         y="155.20081"
         style="font-style:normal;font-variant:normal;font-weight:normal;font-stretch:normal;font-family:'EB Garamond';-inkscape-font-specification:'EB Garamond';fill:#999999;stroke-width:0.0899845">likelihood</tspan></text>
    <text
       transform="rotate(-1.4813158)"
       id="text2640"
       y="138.56149"
       x="91.935104"
       style="font-size:3.59937px;line-height:1.25;font-family:Candice;-inkscape-font-specification:Candice;letter-spacing:0px;word-spacing:0px;stroke-width:0.0899845"
       xml:space="preserve"><tspan
         style="font-style:normal;font-variant:normal;font-weight:normal;font-stretch:normal;font-family:'EB Garamond';-inkscape-font-specification:'EB Garamond';fill:#999999;stroke-width:0.0899845"
         y="138.56149"
         x="91.935104"
         id="tspan2638"
         sodipodi:role="line">Bayes' rule</tspan></text>
    <text
       xml:space="preserve"
       style="font-size:3.2804px;line-height:1.25;font-family:Candice;-inkscape-font-specification:Candice;letter-spacing:0px;word-spacing:0px;fill:#666666;stroke-width:0.08201;"
       x="36.856739"
       y="80.509674"
       id="text2644"><tspan
         sodipodi:role="line"
         id="tspan2642"
         x="36.856739"
         y="80.509674"
         style="font-style:normal;font-variant:normal;font-weight:normal;font-stretch:normal;font-family:'Century Schoolbook';-inkscape-font-specification:'Century Schoolbook';fill:#666666;stroke-width:0.08201;">&quot;beliefs&quot;; unknown; epsitemic</tspan></text>
    <text
       id="text2648"
       y="81.311485"
       x="108.75223"
       style="font-style:normal;font-variant:normal;font-weight:normal;font-stretch:normal;font-size:3.2804px;line-height:1.25;font-family:'Century Gothic';-inkscape-font-specification:'Century Gothic, Normal';font-variant-ligatures:normal;font-variant-caps:normal;font-variant-numeric:normal;font-variant-east-asian:normal;letter-spacing:0px;word-spacing:0px;fill:#e6e6e6;stroke-width:0.08201;"
       xml:space="preserve"><tspan
         style="font-style:normal;font-variant:normal;font-weight:normal;font-stretch:normal;font-size:3.2804px;font-family:'Century Gothic';-inkscape-font-specification:'Century Gothic, Normal';font-variant-ligatures:normal;font-variant-caps:normal;font-variant-numeric:normal;font-variant-east-asian:normal;fill:#e6e6e6;stroke-width:0.08201;"
         y="81.311485"
         x="108.75223"
         id="tspan2646"
         sodipodi:role="line">&quot;data&quot;; definite; aleatoric</tspan></text>
  </g>
</svg>
