<?xml version="1.0" encoding="UTF-8" standalone="no"?>
<svg
   xmlns:dc="http://purl.org/dc/elements/1.1/"
   xmlns:cc="http://creativecommons.org/ns#"
   xmlns:rdf="http://www.w3.org/1999/02/22-rdf-syntax-ns#"
   xmlns:svg="http://www.w3.org/2000/svg"
   xmlns="http://www.w3.org/2000/svg"
   xmlns:xlink="http://www.w3.org/1999/xlink"
   xmlns:sodipodi="http://sodipodi.sourceforge.net/DTD/sodipodi-0.dtd"
   xmlns:inkscape="http://www.inkscape.org/namespaces/inkscape"
   inkscape:export-ydpi="383.94794"
   inkscape:export-xdpi="383.94794"
   inkscape:export-filename="C:\Users\John\Dropbox\research_teaching\cix_2022\imgs\thermometer_template.png"
   width="210mm"
   height="297mm"
   viewBox="0 0 210 297"
   version="1.1"
   id="svg883"
   inkscape:version="1.0 (4035a4fb49, 2020-05-01)"
   sodipodi:docname="thermometer_templatet.svg">
  <defs
     id="defs877">
    <inkscape:path-effect
       lpeversion="1"
       is_visible="true"
       id="path-effect1003"
       effect="spiro" />
    <inkscape:path-effect
       effect="powerclip"
       id="path-effect956"
       is_visible="true"
       lpeversion="1"
       inverse="true"
       flatten="false"
       hide_clip="false"
       message="Use fill-rule evenodd on &lt;b&gt;fill and stroke&lt;/b&gt; dialog if no flatten result after convert clip to paths." />
    <inkscape:path-effect
       message="Use fill-rule evenodd on &lt;b&gt;fill and stroke&lt;/b&gt; dialog if no flatten result after convert clip to paths."
       hide_clip="false"
       flatten="false"
       inverse="true"
       lpeversion="1"
       is_visible="true"
       id="path-effect938"
       effect="powerclip" />
    <linearGradient
       inkscape:collect="always"
       xlink:href="#linearGradient886"
       id="linearGradient888"
       x1="42.928272"
       y1="61.373878"
       x2="42.777824"
       y2="88.777153"
       gradientUnits="userSpaceOnUse"
       gradientTransform="matrix(0.41320637,0,0,0.41320637,-46.3536,161.65159)" />
    <linearGradient
       inkscape:collect="always"
       id="linearGradient886">
      <stop
         style="stop-color:#ffb380;stop-opacity:1"
         offset="0"
         id="stop882" />
      <stop
         id="stop892"
         offset="0.49913394"
         style="stop-color:#99ff55;stop-opacity:1" />
      <stop
         id="stop890"
         offset="0.76579183"
         style="stop-color:#66ff00;stop-opacity:1" />
      <stop
         style="stop-color:#000000;stop-opacity:1"
         offset="1"
         id="stop884" />
    </linearGradient>
    <clipPath
       clipPathUnits="userSpaceOnUse"
       id="clipPath1482">
      <rect
         style="fill:#87aade;stroke:#000000;stroke-width:0.2;stroke-linecap:square;stroke-linejoin:round"
         id="rect1484"
         width="22.820312"
         height="13.418155"
         x="67.185265"
         y="144.2924" />
    </clipPath>
    <clipPath
       id="clipPath934"
       clipPathUnits="userSpaceOnUse">
      <rect
         y="193.97087"
         x="71.227325"
         height="16.904797"
         width="51.31575"
         id="rect936"
         style="display:block;fill:#477580;fill-opacity:1;stroke:none;stroke-width:0.2;stroke-linecap:square;stroke-linejoin:round" />
    </clipPath>
    <clipPath
       clipPathUnits="userSpaceOnUse"
       id="clipath_lpe_path-effect956">
      <rect
         style="display:block;fill:#477580;fill-opacity:1;stroke:none;stroke-width:0.2;stroke-linecap:square;stroke-linejoin:round"
         id="rect958"
         width="51.31575"
         height="16.904797"
         x="71.227325"
         y="193.97087" />
    </clipPath>
  </defs>
  <sodipodi:namedview
     inkscape:snap-global="false"
     id="base"
     pagecolor="#ffffff"
     bordercolor="#666666"
     borderopacity="1.0"
     inkscape:pageopacity="0.0"
     inkscape:pageshadow="2"
     inkscape:zoom="1.979899"
     inkscape:cx="359.66768"
     inkscape:cy="709.78794"
     inkscape:document-units="mm"
     inkscape:current-layer="layer1"
     inkscape:document-rotation="0"
     showgrid="false"
     inkscape:window-width="2560"
     inkscape:window-height="1377"
     inkscape:window-x="1912"
     inkscape:window-y="-8"
     inkscape:window-maximized="1" />
  <metadata
     id="metadata880">
    <rdf:RDF>
      <cc:Work
         rdf:about="">
        <dc:format>image/svg+xml</dc:format>
        <dc:type
           rdf:resource="http://purl.org/dc/dcmitype/StillImage" />
        <dc:title></dc:title>
      </cc:Work>
    </rdf:RDF>
  </metadata>
  <g
     inkscape:label="Layer 1"
     inkscape:groupmode="layer"
     id="layer1">
    <g
       transform="rotate(-48.058572,111.14426,141.65873)"
       id="g862">
      <rect
         rx="0.67116338"
         ry="0.67295444"
         transform="rotate(-42.687808)"
         y="186.89923"
         x="-30.789255"
         height="11.235723"
         width="4.3246603"
         id="rect880"
         style="fill:url(#linearGradient888);fill-opacity:1;stroke:#000000;stroke-width:0.337683;stroke-linecap:square;stroke-linejoin:round" />
      <path
         sodipodi:nodetypes="cccccccccccccccccc"
         id="path874"
         style="fill:#87aade;stroke:#000000;stroke-width:0.384495;stroke-linecap:square;stroke-linejoin:round"
         d="m 92.085494,152.37431 0.56404,1.58454 7.32577,1.80315 c 0.113226,0.6039 0.333386,1.17847 0.650386,1.69732 l -0.14542,0.13414 16.32371,17.69739 0.29127,-0.26865 c 1.72421,1.00565 4.19736,0.54856 5.99319,-1.10768 1.79578,-1.65645 2.45088,-4.08482 1.58747,-5.88457 l -0.48021,-0.80555 c -0.23386,-0.96885 -15.62213,-17.09603 -15.62213,-17.09603 l -0.78666,0.49089 c -2.00808,-1.4615 -4.20429,-1.59843 -6.10944,0.15869 -0.35202,0.32473 -1.25173,0.97631 -1.50979,1.37809 l -6.711453,-1.29484 -1.424548,0.87211 -1.712892,0.16701 z" />
      <path
         sodipodi:nodetypes="cccccccccccccccccccccccccccc"
         d="m 73.760253,148.7687 3.18991,0.92426 3.1899,0.92466 0.0509,-0.14579 9.364335,2.02146 0.451289,0.50219 1.753571,0.63401 0.521786,1.82227 7.32576,1.80315 c 0.113226,0.6039 0.33339,1.17847 0.650386,1.69733 l 0.22074,0.28768 15.3896,16.94249 0.88284,0.85242 c 1.72421,1.00566 4.17374,0.0288 5.96957,-1.6274 1.79578,-1.65645 2.49813,-4.4628 1.63472,-6.26255 l -0.62769,-1.02893 -15.5219,-16.49467 -0.76995,0.45748 c -2.00808,-1.4615 -4.221,-1.56502 -6.12615,0.19175 -0.35202,0.32473 -0.66113,0.69282 -0.9192,1.0946 l -7.161276,-1.76256 -1.1439,0.7714 -1.766707,-0.47399 -0.617788,0.11638 -9.351615,-2.00069 0.0473,-0.13548 -3.318281,-0.55602 z"
         style="fill:#0055d4;stroke:#000000;stroke-width:0.384495;stroke-linecap:square;stroke-linejoin:round"
         id="rect847" />
      <path
         sodipodi:nodetypes="cc"
         id="path876"
         d="m 108.05408,151.76138 0.51949,-1.63301"
         style="fill:none;stroke:#000000;stroke-width:0.145329px;stroke-linecap:butt;stroke-linejoin:miter;stroke-opacity:1" />
      <rect
         style="fill:#f9f9f9;fill-opacity:1;stroke:#000000;stroke-width:0.582586;stroke-linecap:square;stroke-linejoin:round"
         id="rect924"
         width="7.1662307"
         height="20.182055"
         x="-32.035355"
         y="186.10579"
         transform="matrix(0.73431645,-0.6788073,0.67726082,0.73574301,0,0)"
         ry="1.2087877"
         rx="1.1121594" />
      <path
         clip-path="url(#clipPath1482)"
         id="path1478"
         style="fill:#e6e6e6;stroke:#000000;stroke-width:0.384495;stroke-linecap:square;stroke-linejoin:round"
         d="m 73.760253,148.7687 3.18991,0.92426 3.1899,0.92466 0.0509,-0.14579 9.364335,2.02146 0.451289,0.50219 1.753571,0.63401 0.521786,1.82227 7.32576,1.80315 c 0.113226,0.6039 0.33339,1.17847 0.650386,1.69733 l -0.14542,0.13413 15.75576,17.09604 0.85922,0.3327 c 1.72421,1.00566 4.19736,0.54856 5.99319,-1.10768 1.79578,-1.65645 2.45088,-4.08482 1.58747,-5.88457 l -0.58044,-1.40691 -15.5219,-16.49467 -0.15189,0.1401 c -2.00808,-1.4615 -4.83906,-1.24764 -6.74421,0.50949 -0.35202,0.32473 -0.66113,0.69282 -0.9192,1.0946 l -7.161276,-1.76256 -1.1439,0.7714 -1.766707,-0.47399 -0.617788,0.11638 -9.351615,-2.00069 0.0473,-0.13548 -3.318281,-0.55602 z"
         sodipodi:nodetypes="cccccccccccccccccccccccccccc" />
      <path
         sodipodi:nodetypes="cccccc"
         id="path1486"
         d="m 89.700999,152.0167 c 0,0 -0.40435,0.39413 0.05502,0.74492 l 2.004136,0.86787 0.325334,-1.25554 -1.766705,-0.47363 c 0,0 -0.542615,-0.009 -0.617785,0.11638 z"
         style="fill:#164450;stroke:#000000;stroke-width:0.264583px;stroke-linecap:butt;stroke-linejoin:miter;stroke-opacity:1" />
    </g>
    <path
       sodipodi:nodetypes="cc"
       id="path1005"
       d="m 112.76013,157.4514 c -0.077,1.18244 1.56009,2.84514 2.36976,3.18198"
       style="fill:none;stroke:#000000;stroke-width:0.264583px;stroke-linecap:butt;stroke-linejoin:miter;stroke-opacity:1" />
    <circle
       r="0.73499119"
       cy="155.41722"
       cx="141.05148"
       id="path1709"
       style="opacity:1;fill:#003380;fill-opacity:1;stroke:none;stroke-width:0.2;stroke-linecap:square;stroke-linejoin:round" />
  </g>
</svg>
